<?xml version="1.0" encoding="utf-8"?>
<!-- Generator: Adobe Illustrator 27.5.0, SVG Export Plug-In . SVG Version: 6.00 Build 0)  -->
<svg version="1.1" xmlns="http://www.w3.org/2000/svg" xmlns:xlink="http://www.w3.org/1999/xlink" x="0px" y="0px"
	 viewBox="0 0 500 500" style="enable-background:new 0 0 500 500;" xml:space="preserve">
<g id="OBJECTS">
	<g>
		<path style="fill:#FFC9A3;" d="M246.461,60.535c-43.121,8.453-78.82,46.331-84.706,89.877
			c-3.226,23.868,4.067,51.647,25.373,62.878c15.34,8.086,33.891,5.736,50.95,2.625c30.537-5.569,61.867-13.435,86.069-32.873
			c24.201-19.438,39.294-53.345,28.264-82.359C341.26,71.349,306.548,48.756,246.461,60.535z"/>
		<path style="fill:#EC9A73;" d="M215.969,409.378c0.059-6.382,0.643-12.871,2.648-18.702c0.901-2.62,2.422-5.364,4.633-5.554
			c1.015-0.087,2.004,0.398,2.931,0.939c13.399,7.819,20.681,28.175,34.388,35.043c5.233,2.622,11.042,3.047,16.134,6.101
			c5.091,3.054,9.499,10.345,7.647,17.201c-1.262,4.673-4.935,7.437-8.454,9.376c-14.726,8.117-31.837,8.712-46.879,1.631
			c-2.095-0.986-4.556-1.832-5.745-4.273C219.375,443.135,215.858,421.322,215.969,409.378z"/>
		<g>
			<path d="M427.226,307.915c-0.595-3.728-1.559-7.383-2.763-10.96c-0.927-2.827-1.971-5.617-3.314-8.275
				c-2.223-4.5-4.772-8.883-8.055-12.699c-7.446-8.806-15.975-17.015-26.367-22.234c-4.285-2.183-8.948-3.538-13.716-4.124
				c-6.352-0.873-11.54,0.776-9.569,8.165c0.194,0.592,0.413,1.173,0.653,1.745c-2.415-1.014-4.912-1.84-7.439-2.523
				c-3.907-0.984-7.978-1.744-12.009-1.16c-5.28,1.012-8.65,3.639-10.674,8.634c-0.61,1.6-1.101,3.304-1.053,5.031
				c0.091,3.05,1.157,5.991,2.532,8.686c0.236,0.433,0.489,0.858,0.751,1.276c0.249,0.397,0.503,0.79,0.75,1.188
				c0.281,0.452,0.493,0.852,0.545,1.744c-0.758-0.248-1.551-0.39-2.343-0.506c-3.08-0.439-6.25,0.093-9.079,1.366
				c-0.562-0.499-1.165-0.953-1.823-1.342c-2.704-1.792-5.848-2.704-9.055-3.023c-2.576-0.34-5.25,0.174-7.655,1.109
				c-4.263,1.878-7.759,5.19-10.592,8.832c-0.21,0.278-0.415,0.56-0.624,0.838c-0.013,0.014-0.037,0.043-0.078,0.095
				c-0.038,0.047-0.081,0.088-0.123,0.131c-0.027,0.008-0.052,0.022-0.079,0.029c-0.593,0.014-1.136,0.11-1.643,0.274
				c-1.109-0.294-2.274-0.348-3.38-0.039c-2.342,0.638-4.397,2.069-5.873,3.963c0.314-3.06,0.631-6.12,0.869-9.187
				c0.488-5.791,0.746-11.6,1.311-17.384c1.406-13.49,3.148-26.943,4.813-40.403c1.53-12.86,2.942-25.05,5.942-37.904
				c2.002-8.342,3.609-16.772,5.528-25.132c0.197-0.834,0.406-1.665,0.619-2.495c0.705-1.659,1.419-3.35,2.139-5.106
				c2.473-5.966,4.476-12.111,6.788-18.139c0.002-0.006,0.005-0.013,0.007-0.019c0.293,0.126,0.585,0.276,0.877,0.452
				c2.29,1.318,3.471,3.965,4.193,6.803c0.403,1.452,0.406,5.345,0.15,6.656c-0.914,5.026-2.948,10.646-4.698,14.776
				c-2.985,6.913-6.628,13.545-9.142,20.658c-0.381,1.022-0.771,2.042-1.139,3.069c-0.243,0.755-0.607,1.535-0.519,2.344
				c0.217,1.69,2,2.409,3.283,3.209c4.275,2.357,8.556,4.704,12.876,6.976c4.95,2.596,10.076,4.902,15.457,6.451
				c11.21,3,21.668,4.837,27.869,14.544c0.534,0.725,0.867,1.576,1.334,2.334c0.188,0.147,0.374,0.319,0.628,0.307
				c0.256,0.001,0.475-0.155,0.666-0.31c0.317-0.375,0.5-0.832,0.713-1.27c0.305-0.617,0.605-1.237,0.905-1.856
				c1.428-3.001,2.971-5.951,4.714-8.782c2.88-4.721,6.059-9.122,9.25-13.097c2.317-3.052,5.003-5.903,6.751-9.336
				c4.202-9.179-0.496-15.73-7.794-21.253c-8.266-6.698-17.078-14.157-20.57-23.591c-1.253-3.012-1.355-6.839-1.125-9.52
				c0.845-5.215,1.9-9.941,4.635-14.228c3.181-4.328,8.897-1.887,13.934,1.139c7.201,4.188,13.363,8.737,18.439,15.442
				c4.828,6.327,8.717,14.723,9.23,23.048c-1.417,2.29-2.862,4.562-4.21,6.892c-1.361,2.538-2.976,5.176-2.987,8.145
				c-0.101,2.178,1.882,4.381,3.901,2.628c0.83-0.831,1.259-2.004,1.767-3.049c0.61-1.39,1.207-2.79,1.66-4.241
				c1.04-3.212,1.408-6.562,1.26-9.904c4.413-7.128,7.98-14.772,10.567-22.75c0.813-2.659,1.572-5.337,2.085-8.073
				c0.432-2.214,0.742-4.501,0.365-6.745c-1.037-5.823-4.267-7.004-9.606-8.127c-5.188-1.011-10.486-1.285-15.712-2.051
				c-7.728-0.915-23.698-4.911-26.037-12.05c-0.4-1.804-0.221-3.101,1.448-3.967c1.689-0.955,2.956-1.012,5.231-1.026
				c2.089,0.07,3.377,0.154,5.204,0.521c8.06,1.368,17.09,5.206,23.824,7.98c2.966,1.24,5.923,2.542,8.65,4.258
				c0.862,0.522,1.662,1.141,2.506,1.687c0.475,0.247,1.109,0.104,1.441-0.313c0.415-0.441,0.488-1.089,0.517-1.671
				c0.077-1.327-0.049-2.657-0.139-3.98c-0.28-3.957-1.261-7.856-2.901-11.469c-1.493-3.658-3.731-6.995-6.502-9.807
				c-5.482-5.462-12.222-9.734-19.572-12.182c-6.703-2.233-33.516-8.106-51.444,3.041c-2.588,1.609-5.06,3.474-7.098,5.752
				c-3.003,3.186-5.038,7.128-6.609,11.182c-1.663,4.345-2.712,8.912-3.529,13.484c-0.541,3.756-0.93,8.117-1.382,11.168
				c-0.851,5.352-2.431,10.564-4.033,15.732c-0.242,0.744-0.498,1.482-0.76,2.218c-0.079-0.013-0.159-0.026-0.238-0.036
				c2.169-7.539,3.923-15.188,4.397-23.034c0.098-2.449,0.164-4.914-0.068-7.356c-0.253-0.841-0.225-0.861-0.228-1.721
				c-0.246-7.371-2.543-14.609-6.038-21.07c-2.156-4.183-5.361-7.771-9.206-10.474c-2.628-2.08-5.671-3.592-8.891-4.485
				c0.532-7.889-10.282-14.166-20.628-10.548c-2.797,0.978-5.439,2.414-7.746,4.278c-1.762,1.376-3.273,3.034-4.723,4.729
				c-1.651,1.901-3.229,3.863-4.717,5.894c-1.798,2.411-4.573,6.487-5.822,6.797c-0.091,0.005-0.182,0.01-0.273,0.014
				c-0.036-0.006-0.072-0.012-0.109-0.019c-0.043-0.02-0.085-0.04-0.128-0.06c-0.107-0.084-0.203-0.179-0.288-0.285
				c-0.027-0.056-0.107-0.194-0.157-0.281c-0.099-0.264-0.179-0.534-0.233-0.81c-0.071-0.282-0.123-0.567-0.163-0.855
				c-0.119-1.92,0.13-3.414,0.517-5.1c0.958-3.986,2.673-7.758,3.518-11.772c0.945-4.803,0.397-8.799-4.492-11.31
				c-3.659-1.879-7.935-1.81-11.951-1.795c-5.752,0.09-11.438,1.054-17.118,1.873c-6.882,0.986-13.937,1.92-20.273,4.941
				c-6.175,3.012-11.353,7.726-16.059,12.662c-2.807,3.108-5.381,6.446-7.427,10.109c-2.12,3.858-3.708,7.987-5.085,12.162
				c-0.303,0.924-0.596,1.852-0.859,2.789c-0.148,0.543-0.331,1.094-0.268,1.664c0.552,2.892,4.707,0.441,6.332-0.2
				c4.012-1.904,7.87-4.117,11.893-5.999c8.098-3.968,18.39-7.347,26.359-5.585c2.141,1.2,0.638,2.743-2.103,3.75
				c-3.717,1.312-7.668,1.698-11.518,2.449c-4.633,0.921-9.169,2.295-13.616,3.879c-4.597,1.588-8.908,3.885-13.058,6.402
				c-1.85,1.132-3.703,2.266-5.453,3.549c-2.061,1.639-3.991,3.456-5.675,5.483c-1.125,1.411-2.218,2.887-2.962,4.539
				c-0.954,2.186-1.512,4.53-1.889,6.879c-0.442,3.094-0.906,6.202-1.076,9.324c0.446,4.119,7.827-4.364,9.049-5.315
				c2.944-2.837,7.119-6.464,9.813-8.54c6.841-5.195,13.665-9.826,21.727-11.949c2.211-0.627,4.471-1.049,6.752-1.32
				c-0.026,0.006-0.047,0.011-0.065,0.015c0.096-0.019,0.256-0.047,0.347-0.044c0.43-0.05,0.861-0.103,1.294-0.123
				c1.321,0.011,1.255,0.029,2.027,0.328c2.392,1.837-1.98,5.805-5.27,8.158c-4.791,3.392-10.291,5.589-15.454,8.338
				c-2.783,1.432-5.511,2.969-8.255,4.474c-2.981,1.633-5.99,3.227-8.846,5.073c-2.892,1.963-5.831,3.951-8.278,6.465
				c-1.327,1.364-2.618,2.813-3.371,4.584c-1.922,4.061-2.496,8.609-2.694,13.056c-0.003,1.126-0.232,2.359,0.223,3.42
				c0.306,0.759,1.229,1.165,2.008,0.954c0.868-0.142,1.59-0.777,2.314-1.247c1.382-0.977,2.683-2.061,3.914-3.221
				c6.094-5.865,11.49-12.417,17.759-18.106c3.922-3.608,7.088-6.456,11.737-8.846c0.955-0.469,1.991-0.919,2.575-0.972
				c-0.039,0.123-0.09,0.243-0.156,0.359c-1.107,1.88-5.492,5.944-8.321,8.32c-2.35,1.951-4.813,3.761-7.139,5.74
				c-2.568,2.286-5.06,4.661-7.446,7.136c-2.994,3.082-5.385,6.711-7.06,10.668c-1.064,2.625-1.891,5.363-1.988,8.212
				c-0.155,2.08,0.073,4.195,0.674,6.193c0.667,1.996,1.564,3.911,2.421,5.832c0.79,1.667,1.61,3.32,2.445,4.965
				c0.536,0.987,0.986,2.102,1.813,2.885c2.099,1.819,3.72-3.776,4.418-5.131c0.796-2.09,1.988-4.626,3.14-7.167
				c2.505-5.23,5.136-10.411,8.039-15.433c1.976-3.396,4.304-6.564,6.562-9.775c3.122-4.327,5.401-8.243,8.999-11.783
				c0.71-0.58,0.553-0.616,1.255-0.987l0.294-0.083c0.062-0.002,0.121-0.002,0.161-0.003l0.178,0.047
				c0.053,0.04,0.152,0.102,0.224,0.144c0.068,0.074,0.154,0.17,0.212,0.233c0.036,0.07,0.071,0.141,0.096,0.193
				c0.997,2.949,0.523,4.89-0.321,8.126c-1.139,3.733-3.152,7.737-5.615,11.47c-2.375,3.71-4.595,6.412-7.166,9.622
				c-0.568,0.693-1.135,1.385-1.718,2.065c-0.201,0.255-0.508,0.484-0.528,0.831c-0.059,0.297,0.084,0.637,0.335,0.806
				c0.423,0.367,0.961,0.11,1.353-0.165c0.792-0.491,1.565-1.013,2.355-1.508c1.701-1.117,3.524-2.024,5.351-2.915
				c12.005-5.532,19.132-11.937,22.323-25.139c1.039-4.807,1.51-10.005,2.159-14.208c0.489-3.605,1.173-7.205,2.646-10.552
				c-0.178,0.474,0.237-0.603,0.356-0.838c0.432-0.964,0.867-1.933,1.434-2.827c0.084-0.141,0.179-0.276,0.278-0.407
				c0.063-0.056,0.125-0.112,0.188-0.168c0.045-0.025,0.09-0.05,0.135-0.075c0,0,0.001,0,0.001,0
				c0.049,0.035,0.097,0.071,0.146,0.106c0.127,0.171,0.374,0.495,0.458,0.7c0.965,1.699,1.241,4.59,1.464,6.588
				c0.461,6.264-0.745,11.319-2.25,17.415c-0.284,1.173-0.572,2.345-0.839,3.523c-0.1,0.56-0.269,1.138-0.171,1.709
				c0.182,0.849,1.118,1.223,1.906,1.015c1.665-0.694,2.831-2.187,3.89-3.59c1.262-1.647,2.323-3.449,3.021-5.408
				c1.875-5.798,1.643-11.994,1.995-18.01c0.287-3.707,0.654-6.597,1.867-10.417c0.053-0.159,0.118-0.314,0.18-0.47
				c0.011-0.024,0.021-0.049,0.032-0.073c0.064-0.16,0.144-0.312,0.22-0.466c0.064-0.132,0.134-0.26,0.209-0.386
				c0.007-0.008,0.014-0.017,0.021-0.026c0.102,0.181,0.153,0.316,0.284,0.893c0.439,1.834,0.093,5.16-0.248,7.752
				c-0.378,2.993-0.799,5.987-0.917,9.004c-0.111,3.165,0.256,6.412,1.523,9.337c1.902,4.039,4.775,6.357,8.688,3.041
				c1.242-0.984,2.199-2.239,2.996-3.602c0.324,1.153,0.681,2.298,1.078,3.429c0.469,1.335,0.968,2.659,1.476,3.979
				c0.058,1.057,0.134,2.113,0.234,3.168c0.536,7.217,1.884,14.334,2.861,21.496c0.642,4.659,1.202,11.926,1.948,17.468
				c0.709,5.162,1.712,10.28,2.74,15.386c1.103,5.551,3.123,10.861,4.453,16.356c2.543,10.537,4.775,20.947,6.428,31.385
				c-0.306-0.143-0.618-0.271-0.938-0.383c-1.937-0.803-4.108-0.543-6.095-0.069c-1.734,0.464-3.27,1.491-4.74,2.492
				c-0.693,0.499-1.371,1.022-2.015,1.585c-0.249,0.2-0.378,0.333-0.49,0.438c-0.215-0.68-0.275-1.405-0.442-2.098
				c-0.182-0.923-0.457-1.824-0.786-2.704c-1.182-3.145-2.839-4.861-5.714-6.523c-1.563-0.927-3.3-1.482-5.035-1.99
				c-1.669-0.447-3.368-0.855-5.103-0.908c-3.891-0.228-7.763,0.693-11.171,2.573c-3.363,1.655-6.391,3.98-8.859,6.801
				c-4.039,4.509-6.916,10.307-6.954,16.447c0.078,8.448,4.359,16.177,9.518,22.624c1.739,2.006,3.544,3.962,5.471,5.79
				c3.503,3.204,7.155,6.289,10.047,10.083c0.483,0.663,0.923,1.413,1.288,2.21c-0.211,0.249-0.422,0.499-0.627,0.753
				c-0.465,0.566-0.85,1.185-1.184,1.833c-0.698-0.945-1.417-1.874-2.162-2.784c-4.063-5.069-8.702-9.632-13.311-14.198
				c-3.695-3.701-7.199-7.595-11.064-11.122c-7.069-6.473-15.407-11.285-23.601-16.165c-3.049-1.862-6.007-3.869-8.881-5.991
				c-2.239-1.625-4.383-3.402-6.807-4.751c-0.515-0.287-1.185-0.808-1.662-0.678c-0.149,0.04-1.225,0.63-1.717,0.879
				c0.649-1.123,1.265-2.267,1.832-3.439c1.482-3.137,2.56-6.467,3.314-9.851c2.265-10.22,1.074-25.951-7.208-33.254
				c-3.194-2.8-7.411-4.488-11.663-4.594c-4.078,0.046-8.239,1.015-11.729,3.172c-3.147,1.824-5.531,4.652-7.634,7.568
				c-1.716,2.271-3.919,6.365-4.958,8.718c-0.674-1.444-1.099-2.687-1.662-4.541c-1.003-3.286-1.552-6.686-2.299-10.034
				c-0.465-2.038-1.064-4.042-1.668-6.042c-1.608-5.371-4.714-9.876-9.594-12.764c-1.748-1.014-3.69-1.662-5.639-2.169
				c-1.501-0.421-3.037-0.736-4.6-0.781c-5.278-0.178-10.554,0.7-15.512,2.51c-9.508,3.016-17.754,9.017-25.082,15.647
				c-5.635,5.554-10.764,11.819-13.869,19.159c-1.384,3.329-2.078,6.896-2.729,10.427c-1.324,9.5-1.175,19.165-0.562,28.719
				c0.139,1.915,0.288,3.831,0.482,5.741c0.138,0.87,0.053,1.874,0.637,2.592c0.405,0.466,1.152,0.404,1.55-0.038
				c0.537-0.632,0.834-1.414,1.18-2.158c0.533-1.192,1.081-2.377,1.675-3.54c1.587-3.016,3.272-5.606,5.163-7.885
				c2.047-2.347,4.392-4.407,6.825-6.343c2.416-1.967,5.463-4.203,8.578-6.102c2.879-1.741,5.91-3.207,8.995-4.543
				c2.692-1.239,5.842-2.311,9.164-3.174c1.651-0.441,2.326-0.581,3.971-0.613c1.373,0.035,1.592-0.072,2.471,0.434
				c0.836,0.433,0.879,1.603-0.202,2.661c-2.507,2.369-6.152,4.381-9.508,6.482c-4.611,2.894-9.032,6.079-13.426,9.29
				c-5.499,4.137-11.126,8.144-16.099,12.922c-2.051,2.004-4.218,3.948-5.785,6.372c-2.448,3.989-2.849,9.076-1.349,13.479
				c2.416,6.222,6.84,11.391,11.151,16.388c5.22,6.172,9.768,12.471,14.12,19.726c1.869,3.193,2.945,6.077,4.255,9.147
				c0.298,0.618,0.46,1.332,0.95,1.831c0.323,0.305,0.909,0.352,1.232,0.026c0.286-0.192,0.422-0.516,0.56-0.818
				c0.254-0.553,0.503-1.107,0.75-1.663c0.768-1.825,1.695-3.576,2.721-5.269c1.719-2.757,3.201-4.602,5.409-7.112
				c1.957-2.171,4.169-4.096,6.394-5.986c2.67-2.241,4.938-3.989,8.13-5.923c6.651-4.066,11.935-7.554,12.885-15.929
				c0.143-1.048,0.201-2.099,0.203-3.151c0.393-0.335,0.764-0.695,1.119-1.073c0.231,0.094,0.458,0.192,0.676,0.297
				c1.957,0.882,3.793,2.115,5.927,2.538c5.171,1.181,9.561-1.908,12.224-6.142c3.575-5.6,7.066-11.31,9.702-17.421
				c2.116-4.9,3.61-10.128,3.623-15.498c0.01-3.945,2.046-14.35-14.508-18.211c-4.487-1.087-9.675-2.018-13.82,0.581
				c-1.82,1.181-3.346,2.732-4.78,4.347c-1.844,2.028-3.632,4.105-5.469,6.139c-4.324,4.856-9.069,9.303-14.014,13.518
				c-4.437,3.824-8.891,7.748-12.221,12.611c-2.41,3.572-4.026,7.601-5.583,11.599c-1.457,4.006-2.329,8.21-2.971,12.417
				c-0.545,3.861-0.566,7.77-0.436,11.661c0.097,2.146,0.045,3.554,0.338,5.914c0.289,0.682,1.358,0.52,1.366-0.275
				c-0.012-1.582-0.06-3.165-0.087-4.747c-0.117-3.601-0.048-8.954,0.343-11.706c0.764-5.179,1.916-10.342,3.982-15.169
				c2.61-6.589,5.563-11.252,11.252-16.385c3.746-3.536,7.822-6.704,11.58-10.228c4.022-3.751,7.695-7.851,11.271-12.024
				c5.038-5.91,7.409-9.238,15.35-7.663c15.665,3.106,16.764,9.058,16.991,15.264c0.185,5.059-0.497,9.148-2.203,13.905
				c-1.698,4.863-4.374,9.762-7.268,14.575c-1.889,3.056-3.63,6.287-5.751,8.538c-3.53,3.6-7.707,3.742-11.435,1.753
				c-0.965-0.491-1.969-1.01-3.002-1.451c0.544-0.701,1.043-1.438,1.501-2.185c1.115-1.691,2.098-3.468,2.895-5.331
				c2.085-4.662,3.149-9.723,3.39-14.815c0.153-3.364-0.096-6.772-1.074-10.007c-0.425-1.405-0.907-2.82-1.773-4.021
				c-0.95-1.363-2.254-2.66-3.879-3.143c-1.475-0.367-3.263-0.093-4.26,1.142c-1.289,1.422-1.718,3.325-2.08,5.154
				c-0.519,2.483-0.89,5-0.95,7.538c-0.253,8.044,1.388,15.981,2.124,23.963c0.023,0.216,0.044,0.43,0.063,0.645
				c-0.731-0.04-1.471,0.014-2.216,0.205c-1.723,0.405-3.9,1.629-3.548,3.696c0.381,2.128,3.123,1.889,4.68,1.306
				c0.419-0.17,0.82-0.371,1.206-0.592c-0.21,4.235-1.438,8.027-4.474,10.895c-3.235,3.204-7.694,5.258-11.73,8.244
				c-3.574,2.664-6.98,5.578-10.105,8.758c-3.962,4.258-7.334,9.084-9.507,14.5c-0.034,0.068-0.064,0.137-0.095,0.206
				c-0.222-0.565-0.488-1.293-0.755-1.895c-0.874-2.172-1.743-4.351-2.848-6.418c-1.043-2.022-2.321-3.909-3.527-5.835
				c-3.894-6.222-8.424-12.021-13.201-17.586c-2.635-3.051-4.479-5.355-6.644-8.778c-1.382-2.371-2.415-3.979-3-6.404
				c-1.155-4.292-0.062-9.343,2.683-12.46c5.797-6.553,12.129-11.216,18.969-16.318c4.734-3.498,9.511-6.949,14.491-10.09
				c2.572-1.616,5.228-3.109,7.671-4.922c1.065-0.844,2.25-1.632,2.981-2.805c0.651-1.058,0.769-2.588-0.177-3.509
				c-0.989-1.07-2.528-1.211-3.904-1.162c-1.657-0.002-3.272,0.347-4.858,0.799c-2.453,0.67-4.888,1.419-7.229,2.418
				c-3.013,1.289-6.024,2.6-8.889,4.198c-3.328,1.85-6.46,4.025-9.462,6.364c-2.428,1.915-4.853,3.856-6.987,6.101
				c-2.054,2.14-3.757,4.583-5.277,7.123c-0.923,1.559-1.735,3.179-2.486,4.827c-0.326,0.667-0.589,1.373-0.921,2.039
				c-0.121-1.019-0.213-2.041-0.3-3.063c-0.833-9.59-0.961-19.25-0.115-28.843c0.376-3.191,1.38-8.72,2.821-12.472
				c1.05-2.566,3.148-6.496,5.156-9.324c1.714-2.364,3.374-4.23,5.5-6.65c2.732-3.234,7.245-6.8,9.963-8.928
				c2.437-1.861,4.973-3.589,7.661-5.07c3.442-1.992,6.179-3.278,9.793-4.416c1.953-0.632,3.898-1.316,5.914-1.721
				c3.274-0.663,7.827-0.982,10.672-0.639c2.685,0.486,5.41,1.277,7.352,2.259c3.644,2.045,6.167,4.589,8.059,8.431
				c1.382,2.873,2.501,7.053,3.376,10.765c0.83,4.018,1.641,8.056,3.089,11.906c0.316,0.83,0.673,1.644,1.067,2.44
				c0.321,0.747,0.871,1.782,1.767,1.032c0.572-0.834,0.536-1.224,0.907-1.923c1.12-2.463,2.41-4.852,3.921-7.099
				c3.518-5.291,7.29-9.078,13.746-10.57c6.425-1.637,13.172,0.205,17.645,5.518c6.436,8.084,7.188,22.472,4.063,32.82
				c-1.246,4.568-3.394,8.655-5.99,12.682c-2.605,1.913-4.871,4.312-7.02,6.714c-2.972,3.253-5.731,6.689-8.242,10.31
				c-1.771,2.487-3.481,5.018-5.091,7.613c-0.589,0.954-1.188,1.905-1.725,2.89c-0.613,1.03-1.243,2.61,0.242,3.205
				c2.039,0.634,3.799-2.414,4.882-3.755c1.462-1.975,2.825-4.021,4.238-6.03c2.893-4.063,5.864-8.071,8.713-12.165
				c1.729-2.482,3.497-4.95,5.143-7.492c0.778-0.564,1.593-1.086,2.462-1.553c0.589-0.317,1.61-0.797,1.642-0.823
				c2.939,1.897,5.687,4.067,8.53,6.102c3.145,2.276,6.43,4.349,9.762,6.34c5.85,3.409,12.554,7.583,17.247,11.376
				c3.514,2.783,6.696,5.948,9.807,9.167c6.258,6.565,14.217,13.841,19.247,20.427c0.591,0.762,1.156,1.531,1.708,2.303
				c-0.031,0.079-0.064,0.158-0.094,0.237c-0.652,1.521-1.115,3.223-0.589,4.851c0.125,0.457,0.427,0.805,0.759,1.128
				c0.096,0.095,0.208,0.161,0.338,0.197c0.482,0.118,0.983,0.115,1.429-0.127c0.579-0.316,1.043-0.77,1.447-1.281
				c4.26,7.081,7.245,14.594,9.759,22.538c1.449,4.532,2.621,9.151,3.597,13.807c0.687,3.409,1.242,5.993,1.471,9.223
				c0.022,0.271,0.04,0.542,0.06,0.814c-1.068,0.032-2.137,0.069-3.205,0.117c-5.167,0.285-10.298,0.988-15.382,1.944
				c-7.109,1.337-22.703,4.866-24.561,8.919c-0.297,0.648-0.391,1.401-0.134,2.072c0.415,0.902,1.157,1.608,1.946,2.194
				c2.145,1.641,4.759,2.499,7.328,3.23c5.664,1.673,11.509,2.635,17.351,3.447c5.37,0.768,10.768,1.314,16.182,1.636
				c9.01,0.615,18.07,0.49,27.068-0.262c8.493-0.825,17.016-2.215,24.952-5.464c2.399-1.015,6.085-2.338,7.032-3.511
				c2.728-3.482-3.303-5.107-5.892-5.396c-4.148-0.344-8.346,0.091-12.417,0.91c-6.746,1.349-13.127,3.975-19.499,6.498
				c-2.443,0.958-4.832,2.064-7.303,2.947c0.123-0.222,0.256-0.439,0.386-0.657c2.157-3.207,5.717-6.609,8.63-9.979
				c1.803-2.057,3.526-4.182,5.205-6.341c3.475,0.254,6.946,0.57,10.409,0.961c5.765,0.646,11.521,1.374,17.276,2.106
				c1.95,0.228,6.669,1.162,9.371,2.021c1.762,0.585,3.518,1.896,4.296,2.896c1.35,2.051,0.998,3.87,0.246,6.744
				c-0.621,2.445-1.407,4.845-2.235,7.227c-1.731,4.948-3.513,9.878-5.101,14.874c-2.885,8.694-4.598,17.729-5.614,26.822
				c-1.392,10.89-0.837,24.779-7.273,32.58c-0.558,0.66-1.193,1.251-1.881,1.772c-0.18,0.135-0.361,0.269-0.541,0.403
				c-0.296,0.214-0.599,0.418-0.909,0.611c-0.201,0.136-0.41,0.261-0.625,0.374c-0.246,0.148-0.503,0.273-0.768,0.384
				c-2.398,0.893-4.599,1.262-6.763,1.503c-8.347,0.52-16.717,0.012-25.06-0.364c-7.608-0.325-15.224-0.383-22.834-0.651
				c-2.716-0.082-5.428-0.262-8.134-0.497c-2.108-0.104-4.66-0.495-6.122-1.099c-0.77-0.382-1.003-0.553-1.109-0.821
				c0.806-0.62,2.856-1.054,4.676-1.488c1.104,0.329,2.247,0.543,3.379,0.75c3.22,0.533,6.497,0.594,9.754,0.666
				c4.462-0.023,8.924-0.091,13.381-0.305c5.22-0.23,10.437-0.55,15.642-1.006c3.519-0.325,7.052-0.614,10.516-1.339
				c3.908-0.975,4.773-1.85,4.733-2.461c-0.025-0.379-0.962-2.821-16.056-2.626c-4.544,0.059-9.09,0.15-13.618,0.564
				c-4.13,0.364-8.236,0.948-12.336,1.551c-4.691,0.694-9.374,1.478-13.997,2.533c-0.39-0.101-0.78-0.21-1.168-0.328
				c-3.108-1.108-4.607-3.308-5.72-6.925c-2.842-9.158-2.756-17.904-3.784-27.67c-1.222-11.127-3.45-22.154-6.63-32.886
				c-1.049-3.288-2.103-6.9-3.352-10.073c-0.252-0.375-0.811-0.467-1.196-0.239c-0.355,0.203-0.538,0.654-0.426,1.047
				c0.702,2.071,1.384,4.149,2.052,6.232c1.805,5.529,3.239,11.168,4.438,16.857c1.9,8.697,2.961,16.187,3.62,25.072
				c0.446,6.514,0.943,13.057,2.538,19.409c0.976,3.769,2.124,8.12,5.766,10.156c0.126,0.072,0.256,0.134,0.384,0.2
				c-0.185,0.048-0.37,0.093-0.555,0.142c-1.131,0.37-2.519,0.52-3.237,1.574c-0.249,0.319-0.162,0.748-0.03,1.096
				c0.553,1.123,1.879,1.58,3.003,1.935c1.777,0.486,3.626,0.635,5.454,0.804c3.441,0.318,6.893,0.49,10.346,0.59
				c5.593,0.177,11.188,0.279,16.78,0.461c5.281,0.192,10.557,0.522,15.839,0.697c6.217,0.024,12.581,0.524,18.645-1.129
				c3.88-1.064,7.106-3.945,9.041-7.423c2.267-4.165,3.289-8.865,3.934-13.527c0.654-4.756,0.964-9.55,1.445-14.325
				c0.615-5.637,1.28-10.967,2.572-16.834c1.06-5.138,2.588-10.162,4.261-15.129c1.572-4.775,3.35-9.478,4.958-14.24
				c0.616-1.845,1.187-3.707,1.654-5.596c0.722-2.482,0.991-5.481-0.682-7.653c-1.096-1.348-2.572-2.401-4.16-3.095
				c-1.903-0.834-3.97-1.168-5.981-1.642c-5.228-1.048-10.55-1.499-15.832-2.193c-5.148-0.646-10.315-1.182-15.493-1.589
				c1.198-1.568,2.377-3.15,3.551-4.734c5.726-7.989,11.697-15.701,17.885-23.37c0.927,1.632,1.631,3.406,2.061,5.388
				c0.09,0.448,0.45,0.816,0.914,0.869c0.404,0.041,0.794-0.117,1.144-0.308c1.194-0.847,2.251-1.865,3.331-2.849
				c1.525-1.405,3.065-2.794,4.628-4.157c4.981-4.368,10.093-8.574,13.206-13.969c2.999-5.201,3.262-11.064,1.203-16.451
				c0.913-1.005,1.832-2.005,2.767-2.99c2.465-2.588,5.141-4.961,7.719-7.435c0.342-0.295,0.837-0.788,1.28-1.233
				c0.018,0.37,0.045,0.739,0.081,1.107c0.451,4.745,1.839,9.392,4.257,13.511c1.14,1.872,2.644,3.488,4.104,5.112
				c3.431,3.864,7.929,6.552,12.418,9.014c8.245,4.36,16.943,7.193,24.935,11.053c4.51,2.258,8.851,5.457,12.364,8.226
				c4.109,3.239,7.926,6.84,10.557,10.859c2.008,3.37,3.302,6.105,4.232,9.896c0.108,0.495,0.212,0.991,0.298,1.491
				c0.038,0.215,0.072,0.43,0.104,0.645c0.011,0.078,0.023,0.156,0.034,0.234c0.061,0.457,0.09,0.919,0.168,1.374
				c0.08,0.231,0.23,0.472,0.471,0.553c0.284,0.131,0.65,0.052,0.872-0.165c0.479-0.534,0.607-1.291,0.92-1.925
				c2.34-5.916,5.006-11.76,6.419-17.988C428.08,325.31,428.71,316.487,427.226,307.915z M403.375,171.601
				c-0.733,2.872-2.424,7.151-3.584,8.445c-0.079,0.035-0.194,0.089-0.267,0.124c-0.072,0.021-0.144,0.043-0.216,0.064
				c-0.045,0.001-0.089,0.002-0.134,0.003c-0.033-0.009-0.066-0.017-0.098-0.026c-0.049-0.035-0.097-0.07-0.146-0.106
				c-0.03-0.044-0.144-0.171-0.2-0.227c-0.532-0.817-0.43-0.742-0.431-1.903c0.12-1.763,0.568-2.714,1.423-4.505
				c1.27-2.599,2.848-5.03,4.374-7.483c0.013-0.02,0.025-0.039,0.038-0.059C404.082,167.845,403.843,169.744,403.375,171.601z
				 M318.33,119.866c0.757-4.768,0.996-9.46,1.81-13.664c1.657-8.247,4.01-16.25,9.257-22.034
				c16.65-18.355,50.06-11.605,60.026-7.399c3.97,1.675,7.672,3.91,11.109,6.501c2.733,2.02,6.675,5.785,8.609,9.065
				c2.47,4.064,3.958,8.031,4.787,12.985c0.171,0.841,0.378,4.004,0.378,5.695c-0.001,0.204-0.014,0.407-0.029,0.61
				c-0.675-0.464-1.338-0.947-2.041-1.368c-3.269-2.037-6.851-3.485-10.397-4.96c-3.717-1.503-7.413-3.068-11.211-4.359
				c-5.738-1.9-15.976-5.06-21.776-2.86c-1.192,0.494-2.439,1.208-3.063,2.387c-0.984,2.103-0.361,4.566,0.954,6.374
				c3.284,4.59,11.008,7.398,16.333,8.871c5.448,1.533,11.098,2.125,16.708,2.743c4.097,0.448,7.193,0.697,11.245,1.777
				c2.154,0.53,3.888,1.396,4.762,2.882c1.961,3.332,1.448,7.255,0.492,11.377c-1.98,8.474-4.997,15.754-8.914,23.274
				c-0.665,1.222-1.367,2.422-2.085,3.613c-0.318-2.714-0.951-5.399-1.83-7.973c-1.447-4.433-3.674-8.584-6.384-12.371
				c-1.975-2.922-4.324-5.552-6.894-7.962c-2.934-2.796-6.241-5.165-9.649-7.345c-2.351-1.431-4.685-2.912-7.18-4.081
				c-2.927-1.431-6.57-2.398-9.637-0.846c-2.145,1.233-3.281,3.481-4.215,5.675c-1.066,2.302-1.705,4.761-2.236,7.233
				c-0.828,3.323-1.094,6.766-0.632,10.166c2.249,12.709,14.922,22.365,24.379,30.103c6.023,5.069,8.261,10.883,5.155,17.628
				c-1.882,3.592-4.133,5.897-6.504,9.01c-3.905,4.851-7.502,9.949-10.649,15.327c-1.544,2.559-3.527,6.875-4.641,9.017
				c-1.105-2.073-2.642-3.899-4.193-5.65c-3.151-3.104-7.063-5.336-11.207-6.829c-5.856-2.264-12.122-3.199-18.014-5.347
				c-5.861-2.089-11.384-5.101-17.184-8.247c-2.706-1.523-6.742-3.561-8.761-4.915c-1.201-0.855-0.678-1.546,0.1-3.774
				c1.666-4.614,3.172-8.306,5.291-12.733c2.768-5.854,5.658-11.686,7.536-17.902c1.13-3.607,2.24-7.309,1.998-11.132
				c-0.021-3.577-1.521-8.052-4.395-10.284c-0.601-0.464-1.243-0.824-1.911-1.089C315.592,131.45,317.24,125.707,318.33,119.866z
				 M118.314,255.108c-0.158-4.031-0.017-7.661,0.734-11.141c0.338-1.636,0.575-3.135,1.204-4.139
				c0.702-1.219,1.271-1.492,2.072-1.578c1.674-0.091,2.396,0.556,3.848,2.207c2.1,2.885,3.006,8.466,2.744,13.046
				c-0.206,6.323-1.852,12.59-5.008,18.085c-0.912,1.526-1.747,2.895-2.683,4.067c-0.239-0.074-0.48-0.14-0.721-0.199
				c-0.121-1.493-0.302-2.983-0.47-4.466C119.421,265.701,118.63,260.426,118.314,255.108z M118.252,278.348
				c-0.975,0.577-1.208,0.684-2.302,0.863c-0.734,0-0.749,0.081-1.174-0.078c-0.04-0.018-0.076-0.043-0.113-0.066
				c-0.009-0.01-0.018-0.019-0.027-0.029c-0.268-0.46,0.158-1.043,0.45-1.284c1.111-0.821,2.464-1.056,3.822-0.943
				c0.018,0.36,0.03,0.718,0.036,1.073C118.721,278.046,118.493,278.203,118.252,278.348z M150.08,267.209
				c-0.867,1.316-2.93,4.095-3.32,4.642c-0.453,0.632-1.013,1.277-1.497,1.74c0.242-0.425,0.54-0.894,0.846-1.446
				c1.083-1.801,2.21-3.574,3.372-5.325c3.024-4.469,5.471-7.989,8.922-11.911c0.956-1.076,1.878-2.13,2.803-3.144
				C157.551,256.951,153.738,262.025,150.08,267.209z M253.955,446.366c6.648-0.951,13.686-1.528,20.825-1.54
				c3.969-0.104,7.809,0.045,11.347,0.576c1.05,0.195,2.099,0.407,3.114,0.741c0.08,0.027,0.159,0.057,0.239,0.085
				c-0.376,0.186-0.666,0.276-1.451,0.454c-3.777,0.911-6.846,1.171-10.947,1.552c-7.472,0.639-14.966,1.047-22.464,1.211
				c-5.48,0.024-10.682,0.239-15.7-0.566C243.893,447.842,248.926,447.094,253.955,446.366z M297.325,291.068
				c2.781-3.859,7.24-8.234,11.378-9.73c3.54-1.204,6.098-0.958,8.917-0.378c2.65,0.551,4.572,1.449,6.882,3.115
				c-0.142,0.082-0.284,0.163-0.423,0.248c-3.235,2.105-5.604,5.244-7.538,8.534c-2.178,3.774-4.036,7.722-6.114,11.551
				c-2.437,4.518-4.986,8.975-7.478,13.463c-1.217-1.21-2.529-2.329-3.878-3.381c-0.299-0.235-0.627-0.481-0.972-0.734
				c0.839-2.555,1.522-5.157,1.912-7.824c0.57-3.688,0.853-7.655-0.543-11.197c-0.625-1.26-1.451-2.473-2.54-3.376
				C297.064,291.282,297.197,291.189,297.325,291.068z M294.63,291.87c0.001,0,0.003-0.001,0.004-0.002
				c0.161,0.059,0.323,0.122,0.486,0.194c1.042,0.479,1.372,0.904,1.897,1.586c0.912,1.206,1.193,1.815,1.526,3.168
				c1.028,5.033-0.031,10.557-1.753,16.004c-1.997-1.399-4.227-2.863-5.404-3.781c-1.137-0.881-2.206-1.833-3.144-2.825
				c0.284-2.257,0.67-4.503,1.451-6.961c0.715-1.885,1.015-2.974,2.229-4.751C292.753,293.27,293.332,292.508,294.63,291.87z
				 M289.086,292.647c1.145-0.691,2.167-1.05,3.143-1.132c-0.898,0.826-1.685,1.943-2.458,3.288
				c-1.618,3.016-2.458,6.355-2.957,9.725c-1.342-1.791-2.175-3.657-2.153-5.443c0.027-0.29,0.054-0.579,0.082-0.869
				c0.029-0.167,0.064-0.333,0.11-0.497C285.927,295.211,287.185,293.779,289.086,292.647z M286.541,306.594
				c-0.458,3.63-0.77,7.046-1.273,10.234c-0.878,6.319-2.648,13.486-5.009,18.626c-0.936,1.925-2.061,4.474-3.222,5.531
				c-0.037,0.013-0.081,0.032-0.126,0.054c-0.131-0.719,0.144-1.929,0.554-3.368c1.852-5.478,3.899-10.908,4.951-16.616
				c1.167-5.796,1.47-11.7,1.881-17.584c0.074,0.144,0.151,0.287,0.229,0.426C285.127,304.848,285.804,305.747,286.541,306.594z
				 M298.819,179.464c-1.734,7.75-3.668,15.459-4.94,23.304c-1.368,7.825-2.23,15.723-3.225,23.6
				c-1.617,12.479-3.156,24.97-4.569,37.474c-0.863,7.449-1.164,14.946-1.809,22.414c-0.714,7.855-1.65,15.69-2.051,23.572
				c-0.428,5.427-1.037,9.885-2.437,15.321c-0.637,2.517-1.463,4.98-2.318,7.431c-0.718,2.12-1.587,4.203-2.039,6.402
				c-0.16,1.16-0.505,2.489,0.33,3.458c1.181,0.918,2.671-0.19,3.302-1.282c2.707-4.202,4.46-8.965,5.758-13.772
				c1.402-5.164,2.17-10.465,2.801-15.771c0.152-1.194,0.272-2.342,0.397-3.473c0.849,0.819,1.753,1.582,2.699,2.284
				c1.61,1.24,3.863,2.716,5.578,3.909c-0.158,0.468-0.319,0.936-0.484,1.402c-2.805,6.981-4.977,13.34-8.49,19.777
				c-1.982,3.471-4.274,6.752-6.471,10.087c-0.722,1.232-2.59,3.768-3.707,5.935c-3.618-0.197-7.239-0.324-10.861-0.375
				c1.133-4.615,1.914-9.309,2.89-13.959c1.531-7.124,2.721-14.309,3.664-21.533c0.481-3.421,1.089-6.823,1.615-10.238
				c0.021,0.399,0.051,0.797,0.102,1.194c0.139,0.668,0.789,1.431,1.508,1.033c0.79-0.45,0.772-1.473,0.971-2.264
				c0.219-1.178,0.406-2.361,0.571-3.548c0.615-4.671,0.883-9.38,1.447-14.057c0.44-3.648,1.301-8.288,2.291-12.496
				c1.664-6.972,2.735-14.059,3.83-21.137c0.959-6.123,2.055-12.231,2.578-18.412c0.647-6.456,0.653-12.956,1.232-19.417
				c0.62-6.987,1.577-13.225,3.097-20.324c1.747-7.497,4.32-14.773,7.025-21.971c0.626-1.635,1.268-3.23,1.922-4.813
				C300.281,172.635,299.581,176.057,298.819,179.464z M263.595,351.138c0.258-2.881,0.516-5.763,0.639-8.654
				c0.384-7.374,0.294-14.758,0.4-22.138c0.117-6.067,0.283-12.141-0.071-18.203c-0.264-3.711-0.694-7.409-1.063-11.111
				c-0.155-2.147-0.867-4.292-0.13-5.801c0.922-1.742,2.685-4.148,4.477-6.026c2.21-2.27,4.581-4.403,6.639-6.814
				c-0.06,3.264-0.177,6.527-0.281,9.787c-0.256,5.875-0.033,11.772-0.632,17.628c-0.418,4.21-1.399,9.27-2.106,14.077
				c-0.808,5.434-1.468,10.892-2.55,16.281c-1.361,6.591-2.566,13.216-4.027,19.785c-0.092,0.399-0.192,0.796-0.292,1.194
				C264.263,351.141,263.929,351.139,263.595,351.138z M264.166,352.79c-0.323,1.187-0.664,2.37-1.002,3.553
				c0.085-1.189,0.182-2.377,0.286-3.564C263.688,352.783,263.926,352.785,264.166,352.79z M274.086,242.616
				c0.528,0.468,1.028,0.978,1.443,1.501c0.249,0.347,0.491,0.699,0.716,1.061c0.158,1.956,0.273,3.936,0.323,5.953
				c0.146,5.046-0.14,10.086-0.384,15.125c-0.026-2.318-0.104-4.635-0.264-6.951C275.511,253.719,274.884,248.156,274.086,242.616z
				 M303.41,159.325c-0.381,0.909-0.758,1.795-1.127,2.647c-3.932,9.044-7.46,18.266-10.267,27.724
				c-1.531,5.229-2.531,10.585-3.359,15.965c-1.421,8.495-1.72,17.11-2.178,25.696c-0.458,6.688-1.225,12.24-2.319,18.715
				c-1.01,6.127-1.847,12.285-3.029,18.383c-0.963,5.003-2.31,9.93-3.087,14.969c-0.869,5.037-1.171,10.253-1.691,15.194
				c0.294-4.065,0.684-8.124,0.901-12.193c0.269-5.221,0.177-10.452,0.331-15.676c0.037-1.037,0.08-2.074,0.126-3.111
				c0.264-0.512,0.515-1.031,0.739-1.561c0.954-2.38,1.373-4.94,1.639-7.478c0.284-2.986,0.481-6.029-0.218-8.974
				c-0.437-1.773-1.164-3.489-2.115-5.059c-0.793-8.917-2.321-17.756-3.477-26.631c-1.37-10.21-2.791-21.503-3.747-32.394
				c-0.325-4.15-0.763-8.288-1.276-12.417c0.474,0.425,0.96,0.879,1.402,1.303c3.189,3.048,5.113,6.023,7.679,9.459
				c1.902,2.499,4.086,5.303,7.066,2.284c0.988-1.16,1.482-2.645,1.938-4.076c0.499-1.693,0.896-3.413,1.298-5.131
				c1.122-4.74,2.216-9.492,3.615-14.16c2.086-6.591,4.82-12.538,8.947-18.417c2.25-3.149,5.414-6.103,8.768-6.489
				C307.848,145.056,305.395,152.123,303.41,159.325z M278.09,249.223c0.2,0.683,0.35,1.382,0.457,2.086
				c0.286,1.979,0.185,3.983,0.032,5.971c-0.145,1.771-0.282,3.037-0.6,4.556C278.161,257.632,278.28,253.427,278.09,249.223z
				 M310.733,140.04c0.217-0.717,0.432-1.434,0.643-2.153c0.05,0.005,0.1,0.015,0.15,0.022
				C311.265,138.62,311,139.33,310.733,140.04z M297.68,72.517c3.1,2.091,5.456,3.839,7.834,6.774
				c2.797,3.475,5.029,8.095,6.503,12.413c1.569,4.653,2.488,8.887,2.497,13.499c-0.009,0.367,0.113,0.717,0.195,1.07
				c0.017,0.073,0.04,0.145,0.059,0.217c0.125,1.514,0.124,3.037,0.115,4.554c-0.086,6.18-1.017,11.415-2.4,17.45
				c-0.622,2.696-1.339,5.365-2.107,8.019c-1.958,0.068-3.909,0.806-5.498,2.104c-2.342,1.704-4.183,3.952-5.746,6.371
				c-1.38,2.084-2.661,4.235-3.795,6.464c-1.964,4.05-3.644,8.247-4.876,12.579c-1.749,6.039-2.875,12.242-4.615,18.28
				c-0.828,2.571-1.73,3.693-3.206,3.812c-0.814-0.271-1.226-0.648-2.178-1.754c-1.23-1.438-2.333-3.088-3.694-4.918
				c-1.761-2.368-3.651-4.652-5.84-6.64c-0.62-0.578-1.255-1.141-1.918-1.669c-0.157-1.201-0.32-2.402-0.488-3.602
				c1.644-1.773,3.229-3.6,4.734-5.492c2.798-3.528,5.613-7.054,8.068-10.834c2.432-3.723,4.474-7.683,6.612-11.578
				c3.068-5.656,5.87-11.479,7.884-17.601c0.79-2.452,1.677-4.895,2.065-7.451c0.22-1.576,0.38-3.262-0.215-4.77
				c-0.628-1.134-2.186-1.483-3.368-1.071c-1.548,0.763-2.834,1.992-4.138,3.105c-4.486,3.955-8.054,8.801-11.359,13.754
				c-2.859,4.61-5.542,9.356-7.839,14.271c-0.949,2.185-1.761,4.426-2.463,6.702c-0.609,1.925-1.239,3.858-1.555,5.858
				c-0.163,0.861-0.257,1.737-0.336,2.586c-0.681-4.761-1.171-9.311-2.15-14.385c-1.192-6.558-2.533-13.09-3.68-19.656
				c-0.82-5.133-1.309-10.256-1.935-15.823c-0.489-3.943-1.038-7.887-1.934-11.761c-0.312-1.396-0.656-2.787-1.09-4.151
				c-0.175-0.575-0.391-1.139-0.543-1.721c-0.012-0.032-0.025-0.087-0.037-0.146c0.138-0.239,0.278-0.477,0.421-0.716
				c0.003,0.001,0.007,0.001,0.01,0.002c0.233,0.106,0.446,0.246,0.646,0.405c1.532,1.434,2.729,3.622,4.009,5.798
				c1.243,2.272,3.129-0.001,4.195-1.157c1.226-1.366,2.464-2.721,3.718-4.062c3.711-4.022,7.751-6.798,12.876-9.176
				c2.745-1.286,5.672-2.361,7.934-4.447c1.297-1.33,2.102-2.775,2.465-4.252C293.689,70.39,295.76,71.302,297.68,72.517z
				 M267.277,159.278c0.406-0.553,0.408-1.414,0.499-2.071c0.12-1.34,0.249-2.678,0.442-4.01c0.188-1.711,1.384-5.658,2.158-7.984
				c1.515-4.647,3.486-8.263,5.903-12.637c3.012-5.548,6.707-11.002,10.5-15.404c1.87-2.086,3.883-4.047,6.053-5.82
				c0.34-0.258,0.675-0.522,1.024-0.768c0.28-0.202,0.573-0.381,0.877-0.545c0.152-0.035,0.303-0.07,0.455-0.105
				c0.837,0.05,0.74,0.067,1.277,0.489c0.12,0.324,0.165,0.676,0.216,1.016c0.219,1.892-0.391,4.815-1.244,7.361
				c-0.732,2.387-1.543,4.748-2.443,7.076c-2.03,5.25-4.849,10.598-7.767,15.919c-2.887,5.451-6.105,10.725-9.967,15.546
				c-1.652,2.19-4.549,5.788-6.826,8.302c-0.053,0.059-0.107,0.116-0.16,0.175C267.956,163.637,267.624,161.456,267.277,159.278z
				 M267.359,169.958c-0.263-0.166-0.521-0.325-0.708-0.447c0.19-0.195,0.376-0.394,0.565-0.591
				C267.264,169.268,267.312,169.614,267.359,169.958z M262.16,92.081c-0.062,0.093-0.436,0.293-0.379,0.284
				c-0.019,0.007-0.039,0.015-0.058,0.022c-0.01-0.011-0.021-0.022-0.031-0.033c-0.074-0.121-0.146-0.242-0.215-0.365
				c-1.075-1.747-2.971-5.483-5.059-6.559c0.705-1.113,1.408-2.121,2.002-2.81c1.542-2.108,4.385-4.521,5.821-5.714
				c3.192-2.406,6.657-4.477,10.331-6.056c1.008-0.446,5.45-1.739,6.562-1.817c3.105-0.377,6.141-0.24,9.016,0.398
				c-0.146,0.579-0.376,1.161-0.704,1.742c-1.49,2.593-4.012,3.81-7.186,5.228c-2.725,1.2-5.409,2.516-7.898,4.159
				c-1.848,1.297-3.651,2.665-5.301,4.208c-2.256,2.194-4.28,4.609-6.456,6.879c-0.188,0.192-0.385,0.374-0.59,0.548L262.16,92.081z
				 M249.144,125.423c-0.953,1.634-1.362,2.218-2.784,3.385c-0.724,0.581-1.993,1.355-2.924,0.962
				c-0.132-0.07-0.389-0.208-0.512-0.297c0.305,0.24-0.207-0.144-0.331-0.283c-1.026-1.057-1.028-1.121-1.855-2.622
				c-0.457-0.837-1.129-3.118-1.33-4.802c-0.715-4.535,0.864-12.016,1.169-17.472c0.044-1.621,0.093-3.308-0.56-4.825
				c-0.269-0.642-0.701-1.363-1.451-1.428c-0.764-0.003-1.404,0.51-1.818,1.118c-1.134,2.044-1.59,4.374-2.011,6.65
				c-1.537,8.101-0.253,15.889-2.573,23.384c-0.882,2.501-2.501,4.972-4.405,6.963c-0.533,0.47-0.62,0.614-0.972,0.826
				c0.025-0.124,0.05-0.254,0.063-0.326c0.873-3.91,1.982-7.773,2.635-11.728c0.59-3.864,0.864-7.814,0.266-11.693
				c-0.356-2.327-0.665-4.935-2.402-6.669c-2.128-1.68-3.641,1.464-4.38,3.115c-0.816,1.822-1.586,3.672-2.161,5.586
				c-1.142,4.055-1.752,10.159-2.229,13.454c-0.44,3.019-0.799,6.064-1.582,9.018c-1.172,4.492-3.387,9.024-6.055,12.276
				c-4.238,5.067-9.867,8.087-16.1,11.03c-0.952,0.449-1.879,0.944-2.79,1.469c0.652-0.814,1.297-1.634,1.93-2.463
				c4.661-6.169,9.173-12.899,10.622-20.622c0.357-1.594,0.364-3.241,0.018-4.838c-0.221-1.073-0.534-2.272-1.562-2.836
				c-2.399-1.406-4.459,1.662-5.928,3.174c-2.455,2.848-4.527,5.992-6.67,9.074c-3.423,4.857-6.886,9.703-9.6,15.006
				c-2.215,4.219-4.414,8.45-6.382,12.792c-1.483,3.273-2.676,6.442-4.014,9.229c-0.185,0.411-0.391,0.732-0.591,0.977
				c-0.427-0.57-0.724-1.227-1.059-1.853c-1.028-2.024-2.047-4.054-2.984-6.122c-0.846-1.909-1.443-3.127-2.104-5.407
				c-0.469-1.872-0.506-3.067-0.382-5.269c0.303-4.391,2.251-8.981,5.041-13.157c1.525-2.336,4.049-4.858,6.468-7.207
				c2.199-2.107,4.41-4.207,6.821-6.072c3.705-2.847,7.334-5.798,10.607-9.141c1.27-1.346,2.878-2.687,3.26-4.58
				c0.198-0.843-0.521-1.717-1.368-1.774c-1.159-0.068-2.258,0.462-3.292,0.926c-4.177,1.988-7.793,4.951-11.211,8.029
				c-3.09,2.866-6.116,5.806-9.007,8.874c-4.54,4.771-9.175,10.367-14.021,13.815c-0.273,0.189-0.552,0.371-0.836,0.544
				c-0.171,0.115-0.353,0.21-0.54,0.294c-0.066,0.009-0.131,0.019-0.197,0.028c-0.022-0.006-0.044-0.012-0.065-0.019
				c-0.01-0.008-0.019-0.018-0.029-0.027c-0.017-0.041-0.034-0.082-0.051-0.123c-0.193-2.164,0.192-5.567,0.316-6.78
				c0.333-2.124,0.644-4.279,1.407-6.298c0.491-1.268,0.722-1.906,1.55-3.293c1.345-1.999,4.031-4.552,6.065-5.986
				c3.491-2.722,7.321-4.958,11.205-7.065c5.661-3.162,11.362-6.248,17.194-9.086c4.913-2.467,9.942-5.185,13.487-9.499
				c1.387-1.516,2.065-3.879,0.571-5.559c-1.792-1.582-4.422-0.813-6.566-0.581c-4.714,0.666-9.296,2.171-13.578,4.237
				c-4.102,1.966-7.869,4.536-11.519,7.234c-5.611,4.046-10.694,8.756-15.629,13.589c-1.142,1.107-2.038,1.898-3.092,2.602
				c-0.152,0.107-0.312,0.2-0.476,0.287c0.012-0.24,0.035-0.479,0.055-0.718c0.593-5.18,0.922-10.777,3.138-15.233
				c2.634-4.535,6.562-8.162,11.091-10.916c3.381-2.171,8.159-4.817,11.215-6.161c5.459-2.21,11.108-3.987,16.874-5.196
				c3.944-0.913,13.226-1.486,15.547-4.941c0.329-0.52,0.542-1.133,0.468-1.754c-0.096-0.571-0.472-1.077-0.874-1.483
				c-0.729-0.832-1.92-0.944-2.954-1.099c-1.628-0.184-3.275-0.188-4.912-0.146c-10.175,0.588-19.457,5.417-28.337,10.037
				c-2.16,1.149-4.449,2.272-6.271,2.997c-0.366,0.147-0.738,0.284-1.12,0.385c-0.238,0.075-0.479,0.134-0.724,0.18
				c-0.074,0.003-0.15,0.004-0.193,0.005c-0.054-0.015-0.109-0.031-0.163-0.046c-0.017-0.015-0.032-0.029-0.046-0.041
				c-0.009-0.02-0.017-0.04-0.026-0.06c-0.003-0.08-0.006-0.16-0.009-0.24c0.033-0.117,0.08-0.302,0.094-0.391
				c0.096-0.371,0.2-0.74,0.309-1.107c0.663-2.193,1.388-4.369,2.208-6.508c2.74-7.581,7.275-14.34,13.428-20.195
				c4.133-3.888,7.822-7.084,12.982-9.589c7.729-3.756,19.427-4.58,27.68-5.92c5.801-0.684,12.366-1.209,17.536-0.089
				c3.33,0.809,6.454,2.817,6.811,6.245c0.355,2.403-0.454,6.036-1.574,9.165c-1.303,4.22-4.272,11.123-1.934,15.317
				c1.946,2.506,4.47-0.55,5.703-2.216c1.255-1.614,2.443-3.279,3.67-4.914c4.829-6.439,15.457-19.092,28.15-13.473
				c3.65,1.616,6.771,4.966,6.653,8.634c-1.244-0.272-2.508-0.452-3.781-0.537c-6.234-0.615-12.433,1.491-17.744,4.642
				c-3.5,1.966-6.731,4.404-9.543,7.272c-1.675,1.742-3.137,3.675-4.42,5.721c-0.209,0.05-0.418,0.132-0.627,0.259
				c-0.443,0.457-0.548,1.013-0.498,1.595c-1.209,2.061-2.23,4.233-2.929,6.522c-0.831,2.677-1.599,5.381-2.057,8.149
				c-0.368,2.321-0.479,4.671-0.513,7.018c0.045,5.083,0.586,10.193,1.742,15.153C249.726,124.376,249.456,124.881,249.144,125.423z
				 M253.046,129.39c-0.445-1.293-0.861-2.595-1.225-3.914c-0.072-0.285-0.14-0.566-0.208-0.846
				c0.288-0.605,0.557-1.217,0.816-1.823c0.251-0.632,0.492-1.268,0.725-1.907C253.072,123.73,253.012,126.561,253.046,129.39z
				 M254.831,125.462c0.132-3.658,0.135-7.326,0.324-10.981c0.202-0.806,0.389-1.617,0.493-2.442
				c0.071-0.617,0.174-1.364-0.426-1.744c-0.283-0.217-0.703-0.194-1.006-0.02c-0.826,0.621-0.643,1.851-0.794,2.769
				c-0.025,0.399-0.046,0.797-0.064,1.196c-0.337,1.314-0.736,2.613-1.153,3.903c-0.458,1.354-0.831,2.462-1.246,3.518
				c-0.74-3.715-1.128-7.233-1.262-11.305c-0.025-3.106,0.038-5.817,0.496-8.528c0.658-3.529,1.623-7.013,2.915-10.362
				c0.272-0.623,0.683-1.449,1.167-2.354c0.034,0.106,0.066,0.211,0.095,0.312c0.344,1.073,0.642,2.161,0.9,3.258
				c2.702,11.29,2.646,22.645,5.126,34.289c1.599,8.359,3.405,17.345,4.323,25.169c0.204,1.553,0.428,3.116,0.661,4.678
				c-0.12-0.189-0.239-0.377-0.36-0.565c-4.095-6.23-6.471-12.38-9.079-19.19c-0.301-0.773-0.604-1.546-0.905-2.319
				C254.843,131.698,254.76,128.607,254.831,125.462z M270.694,223.486c-1.17-5.662-2.363-11.322-3.801-16.923
				c-0.897-3.589-2.05-7.106-3.059-10.664c-1.694-6.347-3.068-14.6-3.898-20.205c-0.993-8.138-1.581-16.325-2.951-24.415
				c-0.612-3.822-1.157-7.691-1.55-11.627c0.001,0.002,0.001,0.003,0.002,0.005c2.013,5.215,4.131,10.43,7.072,15.203
				c0.659,1.07,1.317,2.141,2.007,3.192c0.352,0.493,0.737,1.249,1.288,1.569c0.397,2.571,0.801,5.122,1.166,7.606
				c-0.283,0.299-0.565,0.599-0.854,0.893c-0.435,0.47-1.155,0.972-0.962,1.699c0.153,0.446,0.557,0.713,0.942,0.945
				c0.483,0.299,0.963,0.605,1.424,0.937c0.023,0.015,0.05,0.036,0.074,0.053c0.043,0.342,0.086,0.684,0.126,1.022
				c1.177,10.07,1.798,20.196,3.144,30.248c0.975,8.818,2.207,17.605,3.466,26.386c0.573,4.207,1.191,8.426,1.637,12.752
				c-0.453-0.453-0.951-0.864-1.447-1.268c-0.252-0.216-0.513-0.422-0.781-0.617C272.88,234.654,271.851,229.056,270.694,223.486z
				 M239.619,303.543c-0.163,0.236-0.342,0.457-0.539,0.663c-0.121,0.147-0.26,0.274-0.408,0.392
				c-0.076,0.037-0.228,0.133-0.292,0.182c-0.047,0.014-0.093,0.027-0.14,0.041c-0.048-0.051-0.096-0.103-0.144-0.154
				c-0.022-0.049-0.043-0.098-0.065-0.146c-0.08-0.254-0.135-0.512-0.165-0.777c-0.058-0.578,0.117-1.442,0.427-2.38
				c0.475,0.699,0.933,1.404,1.38,2.111C239.654,303.498,239.638,303.521,239.619,303.543z M240.579,301.796
				c-0.5-0.771-1.014-1.532-1.543-2.284c0.259-0.551,0.543-1.081,0.833-1.548c0.171-0.268,0.37-0.538,0.582-0.81
				C240.918,298.729,241.034,300.368,240.579,301.796z M240.141,292.905c-0.906-1.287-1.963-2.456-3-3.637
				c-3.62-3.897-7.918-7.101-11.413-11.124c-1.956-2.105-3.048-3.642-4.65-6.057c-2.798-4.197-4.582-7.986-5.572-12.97
				c-0.306-1.475-0.578-5.044-0.317-6.247c0.542-3.361,1.256-5.784,2.877-8.495c2.836-4.804,6.427-8.49,11.522-11.17
				c3.247-1.718,5.96-2.642,9.582-2.636c2.779-0.066,4.816,0.486,7.677,1.382c2.007,0.618,4.337,1.962,5.834,3.409
				c0.923,0.961,1.52,2.013,2.168,3.581c0.007,0.04,0.296,0.843,0.351,1.054c0.209,0.664,0.354,1.345,0.488,2.028
				c0.229,1.025,0.253,2.383,1.266,2.956c1.056,0.337,1.82-0.767,2.569-1.331c0.57-0.507,1.262-0.991,2.257-1.666
				c1.84-1.155,2.85-1.735,4.919-2.012c0.095-0.006,0.283-0.023,0.382-0.04c0.654-0.062,1.316-0.086,1.97-0.016
				c0.631,0.117,1.235,0.333,1.83,0.567c0.352,0.136,0.8,0.374,1.288,0.683c0.806,5.335,1.457,10.68,1.913,16.056
				c0.374,4.16,0.471,8.331,0.441,12.503c-0.747,1.025-1.576,2.003-2.452,2.935c-2.209,2.387-4.72,4.485-6.81,6.981
				c-1.258,1.64-2.62,3.261-3.476,5.155c-0.502,1.101-0.434,2.333-0.263,3.503c0.127,1.028,0.263,2.056,0.368,3.086
				c0.382,3.996,0.886,7.984,1.083,11.995c0.298,6.263,0.064,12.532-0.033,18.797c-0.055,7.181-0.041,14.367-0.432,21.54
				c-0.139,2.478-0.355,4.95-0.571,7.422c-1.13,0.004-2.261,0.018-3.391,0.037c0.608-7.357,1.426-14.693,2.179-22.037
				c0.758-6.223,1.334-12.469,1.412-18.741c0.055-5.1-0.555-8.918-1.247-13.656c-0.402-2.678-1.1-5.3-1.549-7.969
				c-0.24-1.438-0.429-3.041-0.352-4.658c1.828-1.483,3.55-3.105,4.911-5.033c1.286-1.79,2.769-3.972,2.184-6.275
				c-0.324-1.247-1.84-1.371-2.841-0.871c-1.606,0.868-2.344,2.145-3.065,3.173c-1.626,2.578-2.791,4.986-3.047,7.907
				c-0.015,0.145-0.021,0.294-0.032,0.442c-0.215,0.087-0.421,0.228-0.629,0.316c-1.059,0.539-2.113,1.089-3.163,1.644
				c-2.436,1.308-4.887,2.605-7.135,4.224c-1.913,1.347-3.654,2.923-5.239,4.642C240.69,293.812,240.427,293.35,240.141,292.905z
				 M259.253,282.029c0.097-0.444,0.218-0.884,0.376-1.317c0.954-2.536,3.18-7.222,4.654-7.371c0.075-0.006,0.151-0.009,0.227-0.008
				c0.634,1.38-1.301,4.336-2.82,6.156C260.934,280.386,260.111,281.226,259.253,282.029z M250.136,321.683
				c-2.21-6.373-5.028-12.582-8.573-18.333c0.015-0.024,0.03-0.048,0.045-0.072c1.023-1.862,0.95-4.101,0.453-6.112
				c-0.13-0.46-0.284-0.914-0.456-1.362c0.634-0.688,1.332-1.391,2.033-2.116c3.494-3.414,8.324-5.881,13.065-8.337
				c0.061-0.038,0.126-0.073,0.192-0.106c0.053,0.03,0.11,0.053,0.169,0.069c0.15,4.449,1.725,9.432,2.037,12.771
				c0.408,3.209,0.865,6.421,0.939,9.659c0.095,3.976-0.192,7.952-0.455,11.917c-0.254,3.4-0.69,6.782-1.026,10.174
				c-0.391,4.116-0.739,8.235-1.16,12.348c-0.247,2.388-0.403,5.065-0.584,7.525c-0.081-0.868-0.172-1.735-0.281-2.6
				C255.195,338.459,253.085,329.926,250.136,321.683z M274.388,361.466c-1.536,1.676-3.074,3.35-4.55,5.079
				c-0.745,0.886-1.479,1.788-2.063,2.79c-0.33,0.6-0.783,1.237-0.668,1.949c0.036,0.406,0.32,0.782,0.706,0.916
				c0.553,0.204,1.14-0.017,1.666-0.215c3.052-1.176,6.046-2.497,9.094-3.682c6.51-2.594,13.108-5.069,20.057-6.181
				c2.731-0.351,8.099-0.889,11.028-0.076c1.592,0.436,2.921,0.976,3.25,1.487c0.079,0.122,0.377,0.627-0.898,1.54
				c-0.939,0.564-1.934,1.021-2.938,1.456c-3.419,1.473-9.217,3.559-13.661,4.442c-8.613,1.837-16.899,2.426-25.995,2.598
				c-12.588,0.227-25.101-0.998-36.97-2.972c-11.975-1.992-19.407-4.854-18.736-7.612c0.2-0.929,3.969-3.249,14.713-6.119
				c9.15-2.444,17.94-3.684,27.102-4.018c0.027,0.457,0.054,0.914,0.071,1.371c0.003,0.972-0.089,1.978,0.156,2.926
				c0.165,0.661,1.088,0.938,1.572,0.433c0.481-0.576,0.509-1.38,0.674-2.084c0.161-0.901,0.297-1.807,0.398-2.717
				c1.126-0.018,2.257-0.027,3.397-0.019c-0.242,2.807-0.465,5.615-0.557,8.433c-0.03,0.878-0.094,1.755-0.104,2.633
				c-0.005,0.382,0.015,0.804,0.297,1.092c0.207,0.208,0.522,0.293,0.806,0.213c0.394-0.107,0.623-0.481,0.687-0.864
				c0.684-3.888,1.936-7.636,2.94-11.447c3.531,0.05,7.061,0.159,10.588,0.333c-0.314,0.997-0.268,1.761,0.438,2.03
				c1.326,0.526,2.366-0.898,3.262-1.674c0.047-0.046,0.093-0.094,0.14-0.14c0.318,0.02,0.637,0.041,0.955,0.062
				C279.075,356.179,276.819,358.872,274.388,361.466z M282.458,351.873c-0.21-0.015-0.42-0.031-0.63-0.046
				c0.7-0.716,1.393-1.44,2.075-2.173c0.492-0.527,0.972-1.063,1.447-1.604C284.396,349.334,283.434,350.609,282.458,351.873z
				 M279.828,351.695c-0.34-0.022-0.68-0.045-1.02-0.065c0.786-1.403,1.825-2.842,2.681-4.245c3.13-4.834,6.595-9.499,9.014-14.749
				c1.844-3.939,3.414-7.996,5.024-12.034c0.721-1.763,1.423-3.541,2.059-5.341c0.119,0.089,0.231,0.175,0.335,0.257
				c1.561,1.205,2.989,2.433,4.253,3.732c-4.216,7.48-8.352,15.04-13.356,22.029C286.4,344.714,283.202,348.37,279.828,351.695z
				 M297.079,332.356c-1.116,1.403-2.199,2.812-3.264,4.223c0.485-0.767,0.964-1.537,1.432-2.313
				c2.753-4.564,5.397-9.191,7.999-13.843c0.588,0.679,1.136,1.378,1.632,2.108C302.247,325.78,299.641,329.051,297.079,332.356z
				 M304.036,319.007c0.694-1.245,1.385-2.49,2.075-3.737c2.816-5.022,5.639-10.04,8.246-15.176
				c2.465-4.751,4.701-9.513,8.39-12.865c0.855-0.822,1.848-1.529,2.922-2.114c0.124,0.127,0.25,0.251,0.369,0.382
				c0.901,1.016,1.139,1.413,1.871,2.417c0.98,1.388,1.821,2.82,2.475,4.276c-4.668,5.191-9.096,10.592-13.606,15.919
				c-3.655,4.372-7.296,8.757-10.891,13.179C305.315,320.492,304.695,319.733,304.036,319.007z M324.077,315.127
				c-3.751,3.702-7.905,6.971-11.745,10.58c-1.172,0.981-2.138,2.105-3.169,2.754c-0.108-0.425-0.204-0.855-0.355-1.268
				c-0.429-1.297-0.947-2.568-1.57-3.784c-0.148-0.267-0.304-0.53-0.464-0.789c3.557-4.389,7.182-8.767,10.877-13.179
				c4.436-5.239,8.788-10.555,13.362-15.674c0.49,1.399,0.798,2.813,0.879,4.224C332.624,304.865,328.913,310.319,324.077,315.127z
				 M331.69,290.745c-0.045,0.049-0.089,0.099-0.134,0.148c-0.234-0.494-0.485-0.983-0.759-1.466
				c-1.079-1.734-2.204-3.521-3.591-5.042c2.606-1.066,5.525-1.449,8.147-0.973c0.467,0.077,0.932,0.171,1.388,0.295
				c0.211,0.05,0.418,0.116,0.621,0.196l-0.175-0.074c0.314,0.118,0.607,0.286,0.91,0.429
				C335.888,286.347,333.714,288.472,331.69,290.745z M422.939,339.733c-1.299,3.693-2.818,7.302-4.283,10.932
				c-0.305-1.595-0.827-3.641-1.365-5.022c-0.903-2.417-2.085-4.729-3.436-6.925c-2.665-3.949-6.106-7.314-9.813-10.284
				c-3.617-2.944-7.401-5.688-11.421-8.056c-2.969-1.602-6.061-2.958-9.175-4.251c-7.031-2.951-13.993-5.528-20.85-9.605
				c-3.762-2.255-6.565-4.172-9.415-7.414c-1.654-1.906-2.725-2.959-3.862-5.01c-2.349-4.223-3.492-8.643-3.821-13.212
				c-0.062-0.634,0.059-1.306-0.133-1.918c-0.144-0.5-0.793-0.715-1.221-0.432c-1.124,0.979-2.138,2.088-3.244,3.091
				c-0.58,0.543-1.16,1.086-1.739,1.629c-0.058-0.19-0.04-1.881-0.999-3.417c-0.454-0.728-0.932-1.443-1.347-2.195
				c-1.078-2.053-1.824-3.931-2.296-6.492c-0.062-0.296-0.234-2.029-0.082-2.98c0.062-0.532,0.844-3.447,1.25-3.992
				c1.326-2.663,2.682-4.28,5.141-5.592c0.941-0.43,3.272-1.207,4.011-1.319c5.189-0.61,9.585,0.521,14.658,2.084
				c1.934,0.653,3.738,1.306,5.512,2.119c1.627,3.131,3.842,5.973,6.112,8.648c1.512,1.761,3.208,3.351,4.918,4.916
				c0.661,0.596,1.335,1.18,2.047,1.715c0.587,0.48,1.445,0.916,2.115,0.405c0.414-0.32,0.48-0.879,0.421-1.366
				c-0.088-0.71-0.27-1.408-0.566-2.061c-1.21-2.723-3.186-5.045-5.3-7.113c-1.648-1.539-3.297-3.12-5.199-4.345
				c-1.14-0.684-2.315-1.3-3.513-1.869c-1.083-2.063-1.751-3.84-1.569-6.343c0.153-2.896,4.21-3.672,8.259-3.078
				c1.459,0.149,6.033,1.015,8.177,1.847c3.43,1.166,6.436,2.676,9.783,4.774c6.156,3.802,11.347,8.393,16.48,13.892
				c2.868,3.097,5.609,6.081,7.767,9.238c3.556,5.422,6.246,10.672,8.122,16.608c2.154,6.51,3.432,12.831,3.527,19.346
				C426.598,324.661,425.63,331.988,422.939,339.733z M367.302,262.625c0.849,0.471,1.702,0.995,2.569,1.59
				c2.313,1.787,6.385,5.549,7.995,8.392c0.935,1.354,1.195,2.565,1.33,3.203c-0.072-0.046-0.145-0.091-0.212-0.146
				c-0.085-0.064-0.169-0.128-0.254-0.192c-0.654-0.518-1.282-1.067-1.899-1.627c-1.636-1.507-3.262-3.034-4.712-4.724
				C370.413,267.146,368.769,265.04,367.302,262.625z"/>
			<path d="M201.747,100.878C201.66,100.895,201.626,100.905,201.747,100.878L201.747,100.878z"/>
			<path d="M242.924,129.472c-0.013-0.01-0.025-0.02-0.042-0.033C242.893,129.449,242.907,129.46,242.924,129.472z"/>
		</g>
	</g>
</g>
</svg>
