<?xml version="1.0" encoding="utf-8"?>
<!-- Generator: Adobe Illustrator 27.5.0, SVG Export Plug-In . SVG Version: 6.00 Build 0)  -->
<svg version="1.1" xmlns="http://www.w3.org/2000/svg" xmlns:xlink="http://www.w3.org/1999/xlink" x="0px" y="0px"
	 viewBox="0 0 500 500" style="enable-background:new 0 0 500 500;" xml:space="preserve">
<g id="OBJECTS">
	<g>
		<defs>
			<rect id="SVGID_1_" width="500" height="500"/>
		</defs>
		<clipPath id="SVGID_00000138569286491668965910000005838918389250588082_">
			<use xlink:href="#SVGID_1_"  style="overflow:visible;"/>
		</clipPath>
		<g style="clip-path:url(#SVGID_00000138569286491668965910000005838918389250588082_);">
			<path style="fill:none;stroke:#2D2825;stroke-miterlimit:10;" d="M324.233,149.602c-0.347,1.153-34.197,116.402-0.397,201.935
				c2.717,6.876,5.426,13.755,8.101,20.647c1.199,3.089,2.397,6.179,3.574,9.276c0.548,1.441,3.606,6.151,2.659,1.713
				c-3.089-14.46,1.892-29.289,6.806-43.235c3.352-9.515,6.79-19.193,12.829-27.274c6.001-8.03,14.236-14.04,21.652-20.785
				c28.852-26.24,45.581-63.924,75.206-89.289c-8.618-3.513-18.566-2.225-27.203,1.24c-18.404,7.383-31.94,23.88-40.113,41.947
				c-8.173,18.067-11.664,37.834-15.278,57.332c-3.613,19.497-7.514,39.24-16.398,56.968c-4.133,8.248-9.343,16.06-11.941,24.912
				c-0.867,2.953-1.379,6.026-1.452,9.104c-0.154,6.498,2.62,10.922,4.487,16.825c1.881,5.948,3.527,12.08,5.3,18.086
				c3.729,12.629,6.803,25.508,8.256,38.613c1.308,11.795,1.22,23.708-0.498,35.457c-0.476,3.255-8.391,36.651-9.867,36.079
				c-0.004-0.001-5.198-2.014-5.204-2.016c1.88,0.728,9.678-35.863,10.064-39.42c1.429-13.187,0.689-26.472-1.545-39.526
				c-6.131-35.838-22.508-67.961-33.736-102.169c-2.451-7.468-3.984-13.65-9.521-19.763c-4.765-5.261-10.384-9.843-14.133-15.87
				c-4.031-6.479-5.601-14.139-8.277-21.286c-2.676-7.146-7.043-14.341-14.15-17.118c-3.031-1.184-6.572-1.432-9.474,0.039
				c-2.115,1.072-3.705,2.937-5.162,4.807c-10.255,13.158-16.916,29.088-19.092,45.628c13.554-13.736,24.801-29.743,33.131-47.151
				c1.071-2.239,2.321-4.715,4.66-5.544c3.718-1.317,7.228,2.28,9.467,5.528c9.061,13.15,16.641,27.321,22.548,42.158
				c-0.63-1.581-0.597-7.304-1.209-9.767c-1.101-4.431-1.637-9.102-2.263-13.62c-1.255-9.048-2.039-18.16-2.444-27.285
				c-0.784-17.67-0.14-35.393,1.536-52.994c2.257-23.7,6.245-47.361,12.262-70.406c0.914-3.499,0.413-7.21-1.399-10.34
				c-3.122-5.391-5.782-12.64-11.353-15.854c-2.483-1.432-5.237-2.313-7.929-3.298c-6.695-2.451-13.13-5.607-19.166-9.401
				c-0.849-0.533-1.763-1.184-1.954-2.168c-0.209-1.077,0.557-2.117,1.452-2.751c1.4-0.991,3.149-1.353,4.858-1.496
				c5.468-0.455,10.916,1.105,15.981,3.214c4.015,1.672,7.963,3.722,12.275,4.292c1.306,0.173,2.697,0.229,3.794,0.959
				c0.923,0.614,1.497,1.618,2.231,2.449c1.352,1.531,3.606,1.409,5.464,2.016c2.059,0.673,4.049,1.557,5.932,2.627
				c3.835,2.181,7.233,5.14,9.876,8.676c0.933,1.248,1.8,2.633,1.948,4.184c0.166,1.732-0.582,3.406-1.312,4.986
				c-0.617,1.336-1.235,2.671-1.853,4.007c-0.322,0.696-0.668,1.423-1.289,1.873c-0.73,0.529-1.735,0.57-2.588,0.276
				c-0.853-0.294-1.573-0.884-2.197-1.535c-1.767-1.844-2.883-4.215-4.537-6.161c-1.367-1.609-3.072-2.892-4.798-4.108
				c-1.675-1.18-3.41-2.324-5.352-2.977c-1.871-0.629-3.864-0.78-5.802-1.16c-1.884-0.37-3.499-1.089-5.382-1.422
				c-2.185-0.386-4.194-1.488-6.028-2.693c-2.514-1.653-4.907-3.595-7.759-4.554c-4.406-1.482-9.843-0.638-13.18-3.874
				c-3.398-3.295-2.758-9.17-5.811-12.788c-1.768-2.095-4.476-3.081-6.902-4.358c-7.902-4.159-13.437-11.918-21.331-16.094
				c-2.192-1.16-4.54-2.027-6.648-3.333c-2.108-1.306-4.022-3.161-4.701-5.546c-0.404-1.42-0.284-3.099,0.736-4.166
				c1.214-1.27,3.24-1.272,4.958-0.906c3.828,0.816,7.223,2.961,10.869,4.385c6.984,2.727,14.883,2.804,21.565,6.205
				c7.299,3.715,12.215,10.916,19.121,15.318c4.115,2.623,8.807,4.17,13.233,6.227c2.691,1.25,5.02,2.822,7.432,4.522
				c1.861,1.312,2.948,2.661,4.462,4.379c3.593,4.078,8.548,6.963,13.898,7.969c2.824,0.531,5.725,0.562,8.548,1.098
				c3.074,0.584,6.004,1.758,9.043,2.506c5.282,1.3,10.786,1.293,16.226,1.303c4.863,0.009,9.764,0.042,14.526,1.025
				c3.721,0.768,7.298,2.105,10.967,3.091c4.005,1.077,8.108,1.729,12.232,2.139c3.353,0.333,7.072,0.257,10.171,1.71
				c5.13,2.406,9.87,5.641,13.98,9.541c2.063,1.957,4.009,4.147,5.027,6.802c1.018,2.655,0.961,5.865-0.754,8.133
				c-1.462,1.933-3.934,2.925-6.355,3.015c-2.422,0.091-4.808-0.626-7.034-1.584c-6.571-2.829-12.092-7.764-18.747-10.39
				c-14.335-5.655-31.274,0.296-45.609-5.36c-1.609-0.635-3.259-1.499-4.088-3.017c-0.629-1.151-0.695-2.513-0.976-3.794
				c-1.03-4.688-4.884-8.137-8.432-11.369c-0.901-0.821-1.879-2.006-1.376-3.116c0.167-0.369,0.48-0.652,0.81-0.887
				c2.919-2.08,6.899-0.908,10.445-0.392c2.398,0.349,4.845,0.353,7.244,0.011c1.231-0.175,2.5-0.465,3.464-1.249
				c0.964-0.785,1.522-2.192,0.987-3.315c-0.402-0.844-1.284-1.326-2.044-1.868c-2.111-1.506-3.584-3.879-3.996-6.44
				c-0.174-1.082-0.181-2.235-0.735-3.18c-1.244-2.122-4.312-1.995-6.514-3.092c-2.106-1.049-3.885-3.418-6.195-2.965
				c-0.953,0.187-1.752,0.852-2.693,1.092c-1.146,0.292-2.341-0.076-3.504-0.289c-6.081-1.111-12.69,2.642-14.851,8.433
				c-0.193,0.516-0.347,1.116-0.079,1.597c0.396,0.711,1.49,0.688,2.146,0.207c0.656-0.481,1.02-1.251,1.479-1.922
				c2.556-3.738,7.785-4.219,12.311-4.338c3.165-0.084,7.137,1.555,8.047-2.753c0.338-1.599,0.137-3.299,0.661-4.847
				c0.942-2.782,3.974-4.325,6.874-4.792s5.886-0.153,8.78-0.658c1.696-0.296,3.361-0.873,5.082-0.855
				c1.401,0.014,2.764,0.422,4.105,0.827c4.559,1.375,9.118,2.751,13.678,4.126c1.565,0.472,3.19,0.978,4.383,2.095
				c3.414,3.198,1.465,9.172,3.765,13.245c1.348,2.388,3.932,3.738,6.15,5.351c2.218,1.614,4.328,4.044,3.927,6.757
				c-0.319,2.159-2.125,3.75-3.848,5.089c-2.583,2.007-5.461,3.981-8.73,4.111c-5.953,0.237-10.329-5.496-15.932-7.519
				c-3.401-1.228-7.131-1.034-10.702-1.606s-7.383-2.291-8.639-5.682c-0.611-1.649-0.786-3.831-2.427-4.462
				c-0.644-0.247-1.362-0.165-2.043-0.268c-1.586-0.241-2.82-1.444-4.143-2.353c-3.442-2.364-7.854-2.847-12.019-2.553
				c-1.703,0.12-3.596,0.154-4.611,1.733c-0.374,0.581-0.495,1.382-0.108,1.955c0.912,1.353,2.751,0.265,3.945,0.089
				c2.04-0.301,4.209-0.317,6.258-0.105c1.326,0.137,2.725,0.426,3.683,1.353c0.958,0.927,1.213,2.681,0.197,3.545
				c-1.531,1.303-3.682-0.436-5.588-1.077c-2.386-0.802-4.667,0.299-6.986,0.753c-1.444,0.283-4.133,0.545-5.224-0.551
				c-0.392-0.394-0.613-0.927-0.748-1.466c-0.223-0.89-0.234-1.817-0.308-2.732c-0.22-2.719-1.023-5.388-2.328-7.782
				c-1.074-1.971-1.582-4.524-3.181-6.159c-0.861-0.881-2.002-1.437-2.913-2.266c-3.091-2.812-2.817-7.918-5.491-11.129
				c-3.57-4.286-11.03-3.716-14.25-8.271c-0.821-1.161-1.646-2.781-3.061-2.635c-0.532,0.055-0.994,0.374-1.491,0.571
				c-2.26,0.895-4.628-0.797-6.628-2.179c-2.001-1.381-4.974-2.443-6.634-0.666c-2.448,2.62,1.555,6.945,0.357,10.325"/>
		</g>
		<g style="clip-path:url(#SVGID_00000138569286491668965910000005838918389250588082_);">
			<path style="fill:none;stroke:#2D2825;stroke-miterlimit:10;" d="M170.629,265.585c6.069,19.986,11.847,40.063,17.335,60.216
				c3.775,13.863,7.406,27.765,10.819,41.722c1.536,6.28,3.479,12.452,5.1,18.71c0.825,3.184,1.578,6.389,2.152,9.629
				c0.45,2.54,1.837,6.243,0.583,8.642c-1.658-1.381-2.391-4.805-3.527-6.693c-1.451-2.411-3.121-4.682-4.833-6.911
				c-3.459-4.504-7.181-8.857-9.952-13.84c-8.826-15.872-6.813-36.48-17.273-51.326c-1.408-1.998-3.19-3.958-5.574-4.5
				c-5.282-1.201-9.157,4.822-10.934,9.939c-7.372,21.225-9.206,43.899-13.296,65.992c-1.087,5.872-2.448,11.957-6.2,16.603
				c-5.168-13.608-5.938-28.572-4.363-43.043c1.574-14.471,5.406-28.588,9.225-42.635c0.613-2.255,1.366-4.709,3.321-5.989
				c2.387-1.561,5.574-0.743,8.183,0.41c10.315,4.557,18.454,13.791,21.679,24.597c2.3,7.706,2.174,15.905,3.453,23.844
				c2.241,13.915,9.156,27.315,20.263,35.991c3.247,2.536,6.845,4.683,9.623,7.725c5.276,5.778,5.697,16.394,6.681,23.793
				c1.056,7.949,1.911,15.983,1.842,24.013c-0.183,21.298-4.523,39.04-8.72,56.199c-6.345,25.939-12.337,50.44-1.012,80.891
				l3.423-1.273c-10.935-29.4-5.341-52.27,1.136-78.751c4.246-17.36,8.637-35.312,8.824-57.035c0.06-7.05-0.497-14.092-1.357-21.085
				c-0.439-3.567-0.959-7.124-1.516-10.674c-0.176-1.125-0.999-2.953-0.913-4.025c0.103-1.288,1.458-2.099,2.387-2.829
				c3.964-3.116,5.908-8.218,6.492-13.227c0.584-5.008-0.008-10.068-0.16-15.108c-0.262-8.709,0.802-17.457,3.146-25.849
				c0.416-1.49,0.974-3.103,2.306-3.889c1.464-0.864,3.35-0.413,4.878,0.332c3.555,1.733,6.239,4.825,8.666,7.948
				c12.399,15.953,20.703,34.662,31.741,51.585c0.474,0.726,1.105,1.533,1.971,1.51c0.973-0.026,1.564-1.077,1.829-2.013
				c0.691-2.443,0.524-5.038,0.27-7.564c-1.859-18.458-8.17-36.451-18.247-52.027c-1.007-1.557-2.122-3.154-3.774-3.995
				c-2.208-1.124-4.855-0.659-7.283-0.168c-4.073,0.824-8.146,1.648-12.219,2.471c-1.597,0.323-3.211,0.651-4.695,1.325
				c-2.467,1.12-4.425,3.126-6.068,5.279c-5.442,7.131-7.912,16.018-11.612,24.189c-0.918,2.028-2.033,4.145-3.995,5.198
				c-1.772-3.04-2.002-7.385-2.769-10.814c-0.849-3.796-1.721-7.587-2.609-11.374c-3.832-16.336-8.01-32.591-12.391-48.789
				c-3.779-13.971-7.714-27.899-11.78-41.789c-1.27-4.34-2.554-8.675-3.851-13.007c-0.882-2.944-4.426-10.2-1.482-12.473
				c0.807-0.623,1.911-0.881,2.516-1.702c1.001-1.356,0.061-3.244-0.876-4.645c-1.643-2.456-3.584-5.118-6.485-5.68
				c-1.259-0.244-2.566-0.051-3.837-0.223c-2.261-0.305-4.159-1.717-5.722-3.297c-1.499-1.516-3.379-2.615-4.78-4.132
				c-2.942-3.186-3.14-8.757-0.768-12.28c0.641-0.951,1.445-1.797,1.963-2.82c1.416-2.797,0.246-4.91-0.424-7.733
				c-0.763-3.218-1.165-6.514-1.349-9.814c-0.193-3.462-0.201-7.128-2.005-10.088c-1.382-2.267-3.456-3.428-5.467-4.955
				c-1.837-1.396-2.876-3.59-4.415-5.27c-0.772-0.842-1.599-1.711-2.686-2.065c-0.879-0.287-1.83-0.203-2.751-0.112
				c-1.482,0.147-2.99,0.312-4.353,0.911c-2.877,1.265-4.584,4.182-6.697,6.508c-1.812,1.995-4.022,3.627-6.463,4.771
				c-1.397,0.655-2.907,1.176-4.021,2.244c-1.74,1.67-2.128,4.303-2.045,6.714c0.082,2.41,0.53,4.847,0.062,7.213
				c-0.546,2.757-2.299,5.196-2.624,7.988c-0.415,3.571,1.671,7.094,4.569,9.222s6.492,3.073,10.041,3.646
				c5.534,0.894,11.196,0.991,16.757,0.287c1.486-0.188,3.719-0.049,5.201,0.278c1.083,0.239,1.989,1.144,2.229,2.226
				c0.025,0.114,0.043,0.235,0.003,0.344c-0.101,0.271-0.468,0.299-0.757,0.28c-4.585-0.308-8.995,1.466-13.567,1.844
				c-1.827,0.151-3.727,0.146-5.389,0.919c-3.516,1.636-4.683,6.491-3.079,10.022c1.604,3.531,5.28,5.755,9.054,6.647
				c2.158,0.509,4.602,0.764,6.055,2.439c0.932,1.075,1.261,2.545,2.05,3.729c1.302,1.952,3.921,2.915,6.177,2.272
				c2.263-0.645,3.894-2.629,6.04-3.595c2.744-1.235,5.914-0.662,8.899-0.282c3.339,0.425,6.305-2.741,9.67-1.852
				c2.179,0.576,3.485,2.819,5.482,3.864c2.112,1.104,4.894,0.818,6.651,2.428c1.37,1.255,1.768,3.397,3.315,4.426
				c1.113,0.741,2.555,0.718,3.887,0.597c1.971-0.18,4.145-0.647,5.274-2.273c1.057-1.522,0.921-3.712,2.198-5.054
				c1.579-1.659,4.505-1.2,6.208-2.731c1.098-0.988,1.422-2.569,2.278-3.772c0.76-1.069,1.903-1.79,2.866-2.681
				c0.963-0.891,1.798-2.119,1.617-3.419c-0.189-1.353-1.394-2.308-2.556-3.027c-4.095-2.534-8.852-3.988-13.664-4.178
				c-2.316-0.091-4.804,0.061-6.758-1.185c-0.861-0.549-1.561-1.343-2.475-1.799c-2.086-1.041-4.602-0.049-6.574,1.195
				c-1.972,1.245-3.927,2.8-6.255,2.938c-1.08,0.064-2.197-0.187-3.229,0.138c-1.033,0.324-1.877,1.619-1.226,2.483
				c0.471,0.624,1.439,0.626,2.146,0.292c0.707-0.334,1.262-0.917,1.92-1.34c2.286-1.469,5.412-0.729,7.628,0.843
				c2.216,1.572,3.826,3.837,5.746,5.76c1.92,1.923,4.414,3.59,7.126,3.415c0.384-0.025,0.806-0.11,1.035-0.419
				c0.373-0.504,0.004-1.206-0.372-1.707c-2.569-3.427-5.683-6.445-9.188-8.907c-1.113-0.782-2.285-1.526-3.134-2.588
				c-0.849-1.062-1.327-2.54-0.827-3.804c0.553-1.396,2.097-2.149,2.858-3.443c0.468-0.795,0.612-1.748,1.082-2.542
				c1.442-2.433,4.921-2.251,7.654-2.983c5.854-1.568,9.499-8.283,15.508-9.074c3.783-0.498,7.446,1.542,11.258,1.727
				c2.063,0.1,4.112-0.347,6.175-0.456c2.063-0.109,4.28,0.181,5.852,1.521c1.636,1.394,2.263,3.72,2.017,5.855
				c-0.246,2.136-1.255,4.111-2.437,5.906c-1.084,1.646-2.363,3.274-2.659,5.222c-0.271,1.789,0.333,3.605,0.21,5.41
				c-0.206,3.019-2.689,5.731-5.678,6.201c-1.546,0.243-3.12-0.057-4.685-0.077c-2.125-0.027-5.129,1.961-6.309-0.885
				c-0.601-1.45-0.381-3.145-1.014-4.581c-0.875-1.983-3.154-2.966-5.304-3.241c-2.15-0.275-4.354-0.031-6.482-0.444
				c-3.427-0.666-6.369-2.976-9.803-3.604c-2.265-0.414-4.965-0.223-6.429-2c-0.936-1.135-1.025-2.732-1.636-4.07
				c-0.495-1.083-1.352-2.05-1.44-3.237c-0.098-1.322,0.782-2.494,1.616-3.525c1.245-1.54,2.508-3.096,4.092-4.285
				c1.203-0.904,2.563-1.573,3.839-2.37c6.262-3.911,10.143-10.587,15.013-16.136c0.889-1.013,1.841-2.012,3.036-2.636
				c2.699-1.409,6.195-0.692,8.762-2.327c1.072-0.683,1.971-1.767,3.23-1.951c0.897-0.131,1.784,0.233,2.617,0.589
				c2.128,0.91,4.42,1.968,5.472,4.031c1.569,3.077-0.332,6.809,0.167,10.226c0.135,0.924,0.447,1.826,0.45,2.759
				c0.008,2.275-1.835,4.18-3.88,5.178c-2.045,0.998-4.341,1.345-6.481,2.119c-1.68,0.608-3.281,1.484-5.042,1.784
				c-1.354,0.23-2.743,0.109-4.108,0.259c-1.906,0.21-3.71,0.941-5.486,1.666c-4.607,1.879-9.283,3.798-13.181,6.891
				c-0.677,0.537-1.368,1.128-2.217,1.29c-1.934,0.369-3.437-1.528-4.875-2.873c-2.676-2.503-6.39-3.492-9.942-4.392
				c-1.602-0.406-3.205-0.812-4.808-1.217c-4.628-1.17-2.984-6.863-1.342-10.296c1.394-2.915,3.375-5.513,4.86-8.383
				c1.542-2.979,2.542-6.234,4.315-9.082c1.18-1.896,2.683-3.578,3.845-5.486c1.162-1.908,1.984-4.158,1.593-6.357
				c-0.544-3.064-3.695-5.424-6.788-5.085c-1.795,0.197-3.399,1.154-5.036,1.915c-3.246,1.508-6.826,2.293-10.406,2.28
				c-5.471-0.019-11.52-1.73-16.035,1.359c-1.842,1.26-3.135,3.179-4.136,5.174c-1.464,2.918-2.389,6.391-1.186,9.425
				c0.63,1.59,1.785,2.905,2.919,4.186c5.247,5.929,10.495,11.859,15.742,17.788c0.368,0.416,0.751,0.862,0.85,1.409
				c0.225,1.242-2.865,3.033-3.588,4.037c-1.227,1.705-1.982,3.748-2.485,5.772c-0.083,0.331-0.153,0.706,0.029,0.995
				c0.308,0.486,1.112,0.331,1.469-0.12c0.358-0.451,0.426-1.057,0.584-1.61c0.55-1.919,2.224-3.27,3.827-4.459
				c1.619-1.202,3.986-2.352,5.461-0.977c0.734,0.684,1.006,1.859,1.924,2.264c1.678,0.74,3.69-1.798,5.209-0.771
				c0.446,0.301,0.678,0.841,1.105,1.168c0.599,0.458,1.425,0.402,2.175,0.474c2.049,0.195,3.94,1.583,4.743,3.478
				c0.16,0.379,0.28,0.803,0.165,1.197c-0.333,1.137-2.06,0.927-3.001,0.208c-1.134-0.867-1.873-1.655-3.362-1.465
				c-0.977,0.125-1.693,1.152-2.749,0.988c-2.634-0.408-3.729-4.724-3.204-6.842c0.661-2.661,2.868-4.627,4.132-6.992
				c1.265-2.366,1.262-5.452,1.989-8.069c1.628-5.856,4.431-11.387,8.223-16.139c2.708-3.393,5.909-6.401,8.303-10.023
				c1.236-1.87,2.276-3.926,3.962-5.404c1.685-1.478,4.288-2.229,6.183-1.032c1.193,0.754,1.855,2.093,2.73,3.201
				c1.149,1.456,2.739,2.56,4.505,3.129c1.106,0.356,2.274,0.507,3.358,0.926c2.994,1.16,4.963,4.524,4.508,7.702"/>
		</g>
	</g>
</g>
</svg>
