<?xml version="1.0" encoding="utf-8"?>
<!-- Generator: Adobe Illustrator 27.5.0, SVG Export Plug-In . SVG Version: 6.00 Build 0)  -->
<svg version="1.1" xmlns="http://www.w3.org/2000/svg" xmlns:xlink="http://www.w3.org/1999/xlink" x="0px" y="0px"
	 viewBox="0 0 500 500" style="enable-background:new 0 0 500 500;" xml:space="preserve">
<g id="OBJECTS">
	<g>
		<path style="fill:#EFAB64;" d="M221.804,122.539c-7.862,24.28-15.817,49.867-10.864,74.903
			c8.013,40.501,46.665,67.103,65.813,103.681c5.17,9.876,9.025,20.673,16.45,28.987c7.425,8.314,19.981,13.532,29.884,8.415
			c9.104-4.704,12.55-16.412,11.206-26.57c-1.345-10.159-6.383-19.382-10.353-28.829c-7.737-18.41-11.59-38.443-11.232-58.41
			c0.28-15.652,3.064-31.704-1.415-46.704c-2.995-10.029-9.076-18.875-15.951-26.767c-12.007-13.784-26.726-25.195-43.067-33.388
			C244.172,113.793,226.903,106.793,221.804,122.539z"/>
		<path style="fill:#846C52;" d="M224.833,435.361c-12.738,4.916-25.603,10.473-35.371,20.013c-2.167,2.116-4.303,5.28-2.85,7.938
			c0.627,1.145,1.799,1.876,2.964,2.465c7.367,3.723,15.992,3.694,24.245,3.579c15.935-0.223,31.869-0.463,47.804-0.719
			c24.786-0.399,50.404-1.02,72.906-11.42c7.271-3.361,15.02-9.465,14.145-17.427c-0.72-6.546-7.023-10.919-13.029-13.62
			C322.847,420.413,286.512,411.56,224.833,435.361z"/>
		<g>
			<path style="fill:#030202;" d="M349.43,45.341c-0.032,0.002-0.059,0.005-0.076,0.008
				C349.379,45.346,349.404,45.344,349.43,45.341C349.43,45.341,349.43,45.341,349.43,45.341z"/>
			<path style="fill:#030202;" d="M355.366,81.791c0.004,0.017,0.004,0.036,0.007,0.053
				C355.371,81.824,355.369,81.803,355.366,81.791z"/>
			<path style="fill:#030202;" d="M355.374,81.844c0.005,0.039,0.009,0.079,0.009,0.065
				C355.383,81.887,355.377,81.866,355.374,81.844z"/>
			<path style="fill:#030202;" d="M266.97,54.057c-0.002,0-0.003,0-0.005,0c-0.011,0.002-0.021,0.005-0.032,0.006
				c0.016,0,0.035-0.002,0.054-0.007C266.982,54.057,266.976,54.056,266.97,54.057z"/>
			<path style="fill:#030202;" d="M364.813,41.528c-1.602-2.506-4.297-4.269-7.437-4.983c-2.049-0.492-4.197-0.753-6.296-0.464
				c-2.194,0.276-4.377,1.042-6.049,2.527c-2.519,2.238-4.654,4.864-7.014,7.264c-1.132,1.164-2.193,2.417-3.455,3.444
				c-0.565,0.408-2.073,1.207-3.379,1.362c-0.082,0.01-0.2,0.025-0.256,0.033c-0.49,0.055-0.982,0.065-1.475,0.071
				c-0.29,0.026-0.603-0.052-0.878,0.053c-0.368,0.128-0.468,0.661-0.184,0.926c0.109,0.107,0.248,0.157,0.395,0.168
				c0.058,0.148,0.175,0.27,0.349,0.312c2.252,0.733,4.04,1.595,6.61,1.83c1.48,0.125,3.16,0.269,4.438-0.629
				c1.398-0.976,1.26-2.854,1.986-3.859c1.276-1.822,3.05-2.697,4.988-2.992c0.386-0.088,2.542-0.092,3.405-0.518
				c1.175-0.577,1.457-1.981,2.153-2.968c0.018-0.01,0.036-0.021,0.054-0.031c0.724-0.049,1.567,0.261,2.553,0.543
				c1.088,0.322,2.133,0.893,3.321,2.02c1.18,1.095,1.271,1.944,1.218,3.78c-0.017,0.264-0.048,0.612-0.085,0.99
				c-0.108-0.507-0.224-1-0.359-1.407c-0.693-2.909-3.356-4.476-6.25-3.848c-2.369,0.557-4.343,2.043-6.177,3.577
				c-0.813,0.643-1.511,1.41-2.117,2.25c-0.419,0.594-0.894,1.176-1.125,1.875c-0.314,1.306,0.396,2.579,0.634,3.844
				c0.458,2.049,0.612,4.68,0.183,6.703c-0.083,0.341-0.152,0.726-0.277,1.04c-0.819-0.543-1.003-1.334-1.273-1.985
				c-0.439-1.139-0.693-1.974-1.636-3.036c-0.734-0.791-1.629-1.501-2.678-1.809c-0.007-0.002-0.013-0.003-0.02-0.005
				c-2.137-2.056-4.832-3.461-7.553-4.607c-3.075-1.31-6.359-1.977-9.607-2.704c-3.197-0.715-6.815-2.202-21.184-1.994
				c-6.023,0.087-12.04-0.378-18.053-0.673c-0.344,0.006-0.754-0.05-1.129-0.021c-2.676-2.332-5.537-4.453-8.635-6.187
				c-1.543-0.877-3.268-1.292-5.011-1.543c-1.893-0.314-3.829-0.573-5.745-0.322c-1.785,0.172-3.602,0.97-4.662,2.461
				c-0.376,0.617-0.469,1.348-0.403,2.058c0.003,0.067,0.023,0.222,0.036,0.314c0.106,1.056,0.289,0.466-0.37,1.479
				c-1.153,1.464-0.379,3.317-0.285,4.365c0.072,0.944-0.954,1.178-2.646,1.978c-2.568,1.3-4.425,3.534-3.926,6.554
				c0.188,1.605,0.51,3.211,1.028,4.744c-0.218-0.006-0.44,0.023-0.652,0.089c-1.117,0.361-2.005,1.171-2.903,1.894
				c-0.773,0.641-1.519,1.313-2.259,1.991c-1.49,0.354-2.918,1.197-4.22,1.911c-2.349,1.4-4.532,3.057-6.605,4.836
				c-1.473,1.353-3.029,2.698-4.122,4.389c-0.451,0.67-0.327,1.616,0.38,2.051c-0.358,0.304-0.715,0.61-1.075,0.912
				c-6.042,5.103-11.985,9.532-18.639,14.239c-5.072,3.612-22.509,16.007-25.569,18.483c-2.643,2.145-5.277,4.314-7.645,6.765
				c-6.022,6.467-9.438,14.822-12.342,23.046c-0.834,2.373-1.612,4.766-2.38,7.161c-0.262,0.825-0.514,1.653-0.741,2.488
				c-0.192,0.625-0.33,1.281-0.193,1.933c0.165,0.513,0.4,0.865,0.691,1.084c-2.826,6.208-5.576,12.45-7.997,18.827
				c-2.488,6.775-4.329,13.763-5.79,20.826c-5.572,26.925-2.142,55.209-0.885,63.503c1.36,8.97,3.397,17.829,5.841,26.563
				c1.923,6.875,4.886,13.022,7.337,19.254c-0.83,4.934-2.038,9.796-2.977,14.71c-3.923,20.527-2.688,26.977-1.122,39.539
				c0.686,5.507,0.487,11.06,0.069,16.579c-0.304,3.946-0.454,7.917,0.048,11.854c0.477,3.531,1.445,6.968,2.648,10.317
				c3.234,8.857,9.081,16.389,14.586,23.931c3.119,4.15,6.169,8.368,9.636,12.239c1.919,2.117,4.114,3.965,6.391,5.684
				c0.756,0.57,9.613,8.588,12.168,9.721c6.503,2.886,13.67,1.262,20.467,0.498c2.663,0.047,5.273-0.082,7.871-0.314
				c2.307,0.215,3.954,0.613,6.702,0.876c3.002,0.244,6.029,0.131,9.016-0.241c3.913-0.558,7.032-1.123,10.836-1.377
				c7.408-0.555,14.805,0.542,22.209,0.678c1.944-0.039,3.888-0.259,5.802-0.599c1.212-0.286,2.525-0.391,3.606-1.05
				c0.121-0.074,0.231-0.162,0.33-0.26c1.993,0.168,3.99,0.29,5.991,0.353c7.616,0.188,15.545-0.189,22.538-3.498
				c2.56-1.246,5.668-3.108,6.137-5.701c1.14-4.487-3.305-7.427-5.198-8.397c-3.819-1.932-8.118-3.036-12.293-3.855
				c-4.915-0.845-9.886-1.369-14.855-1.773c-8.574-0.667-17.239-0.031-25.617,1.915c-7.384,1.881-14.565,4.491-21.661,7.249
				c-7.281,2.927-14.46,6.132-21.898,8.649c-3.034,1.003-5.742,1.949-8.652,2.048c-1.46,0.033-2.9-0.435-2.96-1.38
				c0.013-0.734,1.665-2.556,3.426-3.497c0.994-0.531,17.638-10.046,28.435-13.098c10.571-2.988,22.584-5.742,32.853-7.144
				c5.458-0.774,10.976-1.265,16.345-2.556c2.034-0.5,3.963-1.326,5.888-2.137c1.666-0.754,3.327-1.549,4.852-2.565
				c3.228-2.262,6.219-5.127,8.041-8.659c1.011-2.221,1.909-4.506,2.641-6.834c0.788-2.781,1.315-5.629,1.751-8.484
				c0.638-4.386,1.046-8.817,0.771-13.25c-0.707-15.026-4.922-29.643-10.618-43.494c-1.689-4.003-3.644-7.887-5.55-11.789
				c-2.187-4.47-4.408-8.923-6.67-13.356c-3.139-6.279-6.73-13.316-9.13-19.294c-2.196-5.35-3.787-10.918-5.596-16.405
				c-1.469-4.428-2.994-8.866-5.264-12.958c-2.167-3.913-4.915-7.46-7.477-11.116c-4.142-5.669-8.297-11.331-12.071-17.256
				c-2.117-3.446-4.037-7.001-5.864-10.608c-14.229-28.104-13.18-55.185-13.123-58.858c0.069-4.345,0.722-8.042,1.642-12.464
				c0.126-0.563,0.262-1.136,0.406-1.715c2.585,0.489,5.426-2.171,7.262-3.961c2.576-2.609,4.522-5.801,6.172-9.058
				c1.098-2.375,2.754-6.076,1.814-8.658c-1.332-3.661-5.689-0.389-6.527,0.39c-2.508,2.33-6.934,9.611-9.278,18.286
				c-0.105,0.389-0.208,0.779-0.309,1.169c-0.429-0.353-0.868-0.851-1.106-1.476c-2.553-6.358,0.934-15.504,3.892-22.108
				c2.169-4.668,4.724-8.396,8.013-12.093c1.036-1.072,2.189-2.021,3.344-2.962c0.435-0.41,0-1.193-0.592-1.016
				c-0.688,0.395-1.259,1.002-1.893,1.487c-1.361,1.108-2.497,2.447-3.584,3.817c-2.498,3.085-4.625,6.456-6.28,10.066
				c-2.414,5.378-4.652,11.016-4.984,16.964c-0.085,2.673,0.108,5.693,1.894,7.827c0.309,0.354,0.63,0.628,0.958,0.839
				c-1.299,5.32-2.156,10.757-2.146,16.243c0.002,1.063-0.483,12.761,3.68,29.958c1.19,4.915,2.471,9.811,4.172,14.577
				c0.924,2.495,1.709,5.046,2.786,7.481c1.117,2.536,2.076,5.147,3.413,7.579c5.297,10.756,12.814,20.15,19.734,29.874
				c2.152,2.98,4.258,6.013,5.877,9.322c1.81,3.604,3,7.273,4.382,11.376c1.707,5.208,3.249,10.479,5.324,15.558
				c2.778,6.877,6.17,13.482,9.477,20.115c3.953,7.85,8.528,16.894,11.826,24.329c5.832,14.206,10.035,28.911,10.649,43.921
				c0.256,4.01-0.285,9.296-0.754,12.566c-0.446,2.863-0.955,5.724-1.76,8.51c-0.717,2.162-1.463,4.172-2.236,5.896
				c-1.235,2.685-2.786,4.3-4.953,6.375c-2.43,2.366-5.786,4.061-8.886,5.318c-5.19,2.271-11.408,2.786-16.427,3.525
				c-5.898,0.757-11.771,1.718-17.59,2.946c-7.457,1.696-14.944,3.355-22.216,5.741c-5.48,1.798-28.767,11.785-29.898,16.371
				c-0.315,1.278,0.744,2.371,1.923,2.665c1.095,0.428,2.277,0.351,3.421,0.226c1.793-0.16,3.537-0.615,5.245-1.169
				c11.07-3.427,21.486-8.614,32.422-12.414c6.335-2.217,12.738-4.384,19.401-5.361c4.531-0.717,9.346-1.106,14.334-0.987
				c5.979,0.116,11.924,0.836,17.848,1.617c4.755,0.81,12.309,2.387,16.033,5.279c2.186,1.475,3.883,5.904,0.749,8.498
				c-2.899,2.4-6.033,3.506-9.627,4.45c-5.282,1.326-10.563,1.466-16.225,1.332c-1.861-0.05-3.686-0.155-5.49-0.301
				c0.031-0.264-0.008-0.538-0.136-0.798c-1.046-2.352-6.943-2.665-9.273-2.884c-4.097-0.293-8.179-0.088-12.247,0.336
				c-5.915-0.97-11.919-1.423-17.907-1.572c-5.16-0.065-10.298,0.429-15.417,1.041c-5.247,0.623-10.528,1.278-15.61,2.774
				c-0.887,0.271-1.769,0.564-2.621,0.931c-0.706,0.33-1.503,0.718-1.839,1.461c-0.221,0.744,0.179,1.128,0.791,1.34
				c-4.002,0.368-7.842,0.414-11.324-0.819c-1.818-0.598-3.432-1.62-4.921-2.896c-1.548-1.326-5.879-5.079-8.368-6.961
				c-1.81-1.369-4.017-3.207-5.858-5.217c-3.492-3.846-6.184-7.663-9.416-11.966c-4.433-6.081-9.003-12.117-12.418-18.852
				c-3.274-6.592-5.479-14.38-5.13-22.061c0.137-4.107,0.569-8.201,0.633-12.311c0.054-3.464-0.19-6.934-0.65-10.367
				c-3.325-24.798,3.011-45.16,3.954-50.295c1.245,3.448,2.069,7.032,3.078,10.55c0.232,0.622,0.906,1.186,1.576,0.836
				c1.546-0.767,2.117-5.727,2.318-7.411c0.304-2.965,0.197-5.952-0.253-8.896c-0.33-2.517-0.981-4.991-1.899-7.357
				c-0.458-1.075-1.173-3.584-2.719-2.389c-1.361,1.142-1.59,3.036-1.945,4.676c-0.272,1.427-0.495,2.863-0.713,4.299
				c-1.143-2.807-2.286-5.441-3.369-8.153c-2.315-5.846-3.922-11.934-5.393-18.038c-2.124-8.64-3.634-17.185-4.5-25.565
				c-0.757-7.327-2.184-32.687,1.673-52.422c1.486-7.603,3.459-15.117,6.098-22.404c2.458-6.576,5.254-12.749,8.169-19.233
				c4.201-1.378,12.09-12.424,13.409-14.085c4.464-6.041,8.997-12.034,13.34-18.164c1.504-2.158,2.945-4.361,4.348-6.586
				c1.151-2.046,4.066-6.308,2.257-8.425c-1.703-1.605-4.219,0.379-5.716,1.415c-1.472,1.101-2.922,2.246-4.253,3.515
				c-9.027,8.548-14.568,19.934-19.907,30.982c-1.484,3.262-2.989,6.516-4.48,9.777c-0.06-0.727,0.484-2.063,0.865-3.398
				c0.701-2.145,1.406-4.289,2.156-6.418c3.097-8.813,6.7-17.828,13.229-24.429c1.921-1.95,4.042-3.689,6.144-5.438
				c3.132-2.606,13.24-9.702,25.229-18.16c6.914-4.877,13.709-9.938,20.128-15.456c0.478-0.409,0.951-0.823,1.424-1.238
				c1.639-0.258,3.155-1.035,4.601-1.821c2.302-1.305,4.436-2.879,6.51-4.518c1.948-1.559,3.914-3.105,5.728-4.821
				c1.946,1.951,1.265,6.279,2.124,9.221c0.691,2.364,1.779,4.607,3.148,6.652c1.1,1.667,2.928,3.812,3.409,5.26
				c0.722,2.21,0.646,4.664,0.639,7.296c-0.228,5.645-1.183,11.417,0.167,16.99c0.754,2.914,2.171,5.596,3.653,8.198
				c1.688,2.823,3.565,5.548,5.779,7.988c1.227,1.968,2.647,3.646,4.184,5.601c1.006,1.271,3.409,4.751,5.277,6.364
				c1.443,1.315,3.177,2.235,4.729,3.405c0.429,0.342,0.837,0.709,1.228,1.094c0.843,0.851,1.618,1.764,2.368,2.696
				c1.418,2,3.141,1.009,2.73-1.339c-0.415-2.769-1.835-5.403-3.968-7.224c-3.045-2.608-6.651-4.438-9.976-6.649
				c-1.321-0.888-2.623-1.897-3.884-3.054c-0.825-1.155-1.587-2.351-2.202-3.637c-0.865-1.677-1.722-4.206-2.354-6.635
				c-0.955-3.984-1.074-6.972-1.818-10.915c-0.711-4.091-2.023-8.059-2.643-12.164c-0.306-2.773,0.729-3.555,2.784-6.408
				c0.584-0.756,1.246-1.916,1.666-2.41c0.161-0.007,0.09,0.016,0.415,0.08c3.506,0.956,6.976,2.625,9.563,4.679
				c1.684,1.355,3.206,2.899,4.931,4.205c1.163,0.916,3.256,2.51,3.986,3.026c0.782,0.582,1.489,1.273,2.335,1.764
				c0.919,0.534,1.618,0.906,2.441-1.002c0.002,0.01,0.003,0.021,0.005,0.031c0.785,3.494,5.346,5.431,8.504,6.202
				c1.042,0.215,1.182,0.263,2.28,0.466c0.535,0.102,1.106,0.111,1.605-0.106c0.643,0.233,1.365,0.073,2.038,0.128
				c1.061,0.036,1.384,0.071,2.572,0.457c0.047,0.018,0.096,0.034,0.143,0.053c-0.007-0.003-0.015-0.007-0.022-0.01
				c0.017,0.007,0.034,0.015,0.052,0.021c0.077,0.035,0.232,0.104,0.303,0.132c0.288,0.106,0.638-0.008,0.791-0.28
				c0.205-0.341,0.031-0.743-0.268-0.963c-0.244-0.244-0.453-0.52-0.668-0.789c-0.698-0.894-1.961-2.742-2.935-4.088
				c-1.084-1.534-2.416-2.945-4.056-3.887c-1.778-0.917-3.853-0.718-5.782-0.576c-1.728,0.13-3.666,0.443-4.937,0.098
				c-1.955-0.442-2.514-1.202-3.563-3.124c-1.134-1.98-2.496-3.775-4.443-5.015c-3.035-2.007-6.759-2.317-10.226-3.084
				c-1.264-0.292-2.478-0.703-3.27-1.081c-0.885-0.452-1.233-0.607-1.767-1.252c-0.068-0.083-1.763-1.371,1.718-3.913
				c2.096-1.53,3.328-2.962,5.479-4.22c1.346-0.934,3.693-1.663,3.511-3.662c-0.007-0.064,0.002-0.172,0.007-0.228
				c0.015-0.071,0.038-0.15,0.048-0.189c0.004-0.009,0.008-0.018,0.013-0.026c0.645-0.828,3.946-2.077,5.367-3.567
				c3.686-3.864-1.161-8.557-3.265-10.07c-1.667-1.199-3.712-1.717-5.723-1.967c-1.702-0.226-4.159-0.672-5.269-1.201
				c-0.414-0.271-0.341-0.184-0.47-0.396c0.234-0.067,0.184-0.019,0.391-0.009c0.674,0.147,1.313,0.417,1.968,0.628
				c0.381,0.117,0.795,0.278,1.197,0.192c0.335-0.081,0.544-0.457,0.466-0.786c-0.078-0.344-0.325-0.616-0.536-0.888
				c-1.009-1.123-2.057-2.541-3.667-2.721c-0.402-0.061-0.789,0.081-1.167,0.197c-0.634,0.139-0.317,0.084-1.076,0.145
				c-1.827,0.117-3.922,0.178-4.175,2.452c-0.038,1.606,0.276,3.261,1.027,4.69c0.478,0.92,1.297,1.821,1.718,2.67
				c0.28,0.718-0.327,1.551-0.865,2.747c-0.665,1.35,0.183,1.937,1.279,2.554c0.461,0.274,0.976,0.438,1.447,0.692
				c-0.297,0.341-1.582,1.121-2.184,1.736c-0.659,0.702-0.383,1.697,0.484,2.063c1,0.429,2.264,0.901,2.8,1.14
				c2.743,1.226,1.951,2.416-2.077,2.94c-0.911,0.191-2.164,0.542-2.2,1.664c-0.034,0.587,0.396,1.132,0.93,1.337
				c1.059,0.246,2.089-0.369,3.094-0.63c0.039-0.012,0.078-0.023,0.117-0.035c-0.711,0.715-1.801,1.777-2.347,2.371
				c-3.09,3.363-3.534,2.934-3.607,2.935c-0.938-0.235-1.798-1.904-2.637-3.475c-0.744-1.56-0.532-2.496,0.332-4.746
				c0.328-0.91,0.634-1.939,0.242-2.879c-0.716-1.817-1.84-3.454-3.148-4.896c-1.009-1.122-1.525-1.875-2.406-3.337
				c-0.96-1.62-1.361-3.247-1.818-5.376c-0.424-2.209-0.472-3.932,1.168-5.379c0.785-0.722,1.263-1.051,2.406-1.583
				c1.315-0.541,2.741-1.224,2.64-2.883c-0.12-1.151-0.46-2.077-0.305-2.585c0.126-0.717,0.417-0.885,0.913-1.662
				c0.235-0.4,0.271-0.881,0.156-1.325c-0.022-0.102-0.042-0.205-0.06-0.308c-0.031-0.31-0.037-0.623-0.011-0.933
				c0.158-0.808,0.268-0.782,1.066-1.487c1.306-1.071,4.04-1.344,6.589-0.994c1.062,0.16,3.243,0.407,4.778,0.957
				c1.307,0.454,3.643,1.928,5.24,3.038c1.545,1.064,3.049,2.247,4.537,3.543c-0.086,0.317,0.766,3.012,1.391,4.308
				c0.624,1.293,1.341,2.538,2.152,3.723c2.228,3.242,4.967,6.221,8.463,8.104c0.831,0.406,1.674-0.032,1.581-1.045
				c-0.051-0.832-0.422-1.597-0.783-2.334c-1.022-2.118-2.73-3.757-4.233-5.527c-1.566-1.893-3.085-3.832-4.841-5.557
				c-0.359-0.345-0.723-0.685-1.088-1.024c4.313,0.293,10.033,0.534,14.548,0.669c3.329,0.105,7.226,0.073,10.551,0.098
				c6.99,0.053,15.198,1.966,17.809,2.603c2.619,0.658,4.768,1.438,6.929,2.514c1.739,0.879,3.164,1.699,4.458,2.79
				c-0.511,0.31-0.759,0.933-0.574,1.819c0.414,1.914,1.876,3.416,3.549,4.34c1.357,0.911,2.136,0,1.828-1.432
				c-0.015-0.067-0.037-0.131-0.055-0.197c0.024,0.059,0.048,0.118,0.067,0.169c0.442,1.122,1.256,3.163,2.712,3.021
				c0.755-0.226,0.808-1.161,1.002-1.804c0.408-1.661,0.352-3.395,0.211-5.087c-0.119-1-0.28-1.997-0.57-2.963
				c-0.325-1.225-0.692-1.968-0.362-2.679c0.258-0.488,1.272-1.974,1.89-2.571c1.426-1.344,2.517-2.198,4.212-3.216
				c2.613-1.456,5.399-1.549,6.819,0.841c0.495,0.79,0.764,2.244,1.053,3.538c0.133,0.613,0.242,1.234,0.434,1.833
				c0.095,0.244,0.181,0.55,0.444,0.658c0.454,0.274,0.939-0.184,0.928-0.658c0.168-2.213,0.789-4.532,0.079-6.701
				c-0.33-0.957-1.044-1.698-1.854-2.277c-1.347-1.177-3.069-1.784-4.793-2.167c-0.611-0.113-1.307-0.321-1.88,0.021
				c-0.917,0.706-0.975,2.087-1.879,2.816c-0.252,0.195-0.572,0.263-0.88,0.31c-0.003,0-0.003,0-0.005,0.001
				c0.002,0,0.003,0,0.006,0c-0.002,0-0.004,0-0.006,0c-0.111,0.025-0.13,0.017-0.076,0.008c-0.423,0.053-0.849,0.083-1.274,0.116
				c-2.862,0.099-5.879,1.525-7.164,4.19c-0.415,0.886-0.572,1.849-0.911,2.354c-0.392,0.611-1.295,0.996-2.509,0.976
				c-2.145,0.07-4.13-0.448-6.297-1.195c1.721-0.259,3.379-0.969,4.684-2.127c3.256-3.125,6.144-6.613,9.395-9.742
				c1.861-1.879,4.593-2.724,7.279-2.802c4.531-0.071,9.212,1.462,11.311,4.933c0.798,1.297,1.097,2.144,1.474,3.688
				c0.376,1.515,0.389,2.628,0.267,4.37c-0.114,2.133-0.84,3.967-2.085,6.021c-1.602,2.544-2.825,5.081-2.624,8.169
				c0.163,3.916-0.067,7.17-0.94,10.761c-0.629,2.475-1.458,5.055-2.984,5.583c-0.005,0.001-0.007,0.002-0.011,0.003
				c-0.015,0-0.03,0-0.046,0c-0.001-0.004-0.002-0.007-0.003-0.011c-0.004-0.02-0.007-0.034-0.01-0.047v-0.003
				c0.008-0.032,0.016-0.062,0.023-0.084c0.182-0.372,0.355-0.607,0.423-0.681c0.397-0.486,0.924-0.86,1.268-1.39
				c0.355-0.555,0.57-1.183,0.742-1.816c0.516-1.877,0.508-3.831,0.467-5.762c-0.052-1.589-0.013-3.178,0.001-4.767
				c-0.019-1.104-0.154-2.233-0.623-3.244c-0.591-1.234-0.777-1.682-0.585-2.6c0.509-2.807,0.261-4.291-1.919-6.243
				c-0.019-0.021-0.036-0.044-0.054-0.065c-0.225-0.331-0.41-0.69-0.582-1.051c-0.18-0.394-0.317-0.822-0.615-1.147
				c-0.557-0.606-1.556-0.668-2.198-0.16c-0.581,0.517-1.133,1.205-1.288,1.983c-0.127,1.103,0.447,2.154,0.737,3.195
				c0.151,0.46,0.32,0.917,0.417,1.392c0.001,0.013,0.002,0.027,0.002,0.044c0,0.013,0,0.022-0.001,0.033
				c-0.001,0.005-0.003,0.009-0.004,0.014c-0.001,0.002-0.005,0.007-0.007,0.01c-0.135,0.139-0.41,0.369-0.173,0.18
				c-0.309,0.424-2.134,0.59-3.353,1.136c-0.745,0.398-1.33,1.148-1.491,1.981c-0.165,0.926,0.476,2.111,0.814,2.854
				c-0.795,0.072-2.368-0.002-2.125,1.183c0.281,0.73,1.156,0.899,1.778,1.244c0.94,0.497,1.322,0.832,2.126,1.69
				c0.444,0.52,0.751,0.856,0.939,1.255c-0.601-0.368-1.223-0.978-1.924-0.645c-0.885,0.742,0.433,1.324,0.731,1.662
				c0.669,0.58,1.261,1.242,1.812,1.933c0.39,0.425,0.822,1.293,1.217,2.178c-1.02-0.868-2.151-1.608-3.336-2.227
				c-2.079-0.99-4.129-2.039-6.093-3.244c-0.55-0.326-1.092-0.668-1.652-0.978c-0.268-0.131-0.544-0.321-0.855-0.239
				c-0.353,0.102-0.555,0.548-0.362,0.87c1.078,1.154,2.204,2.285,3.232,3.493c1.326,1.495,2.622,3.025,4.105,4.369
				c1.306,1.239,3.425,2.634,4.425,3.358c1.374,0.81,1.455,2.414,1.456,2.46c0.1,1.334,0.252,1.925,0.35,3.091
				c0.135,1.571-0.197,3.24-0.658,4.319c-0.462,0.984-1.128,1.562-1.806,2.054c-0.496,0.353-0.954,0.562-1.42,0.752
				c-0.274,0.07-0.551,0.13-0.829,0.186c-0.456,0.099-0.933,0.161-1.346,0.393c-0.894,0.594-1.476,1.237-2.104,1.652
				c-0.21,0.157-0.44,0.312-0.678,0.46c-0.631,0.042-1.293,0.061-1.852,0.029c-0.822-0.032-1.64-0.14-2.462-0.175
				c-0.581-0.03-1.585,0.089-1.652,0.098c-0.852,0.117-2.68,0.184-2.078,1.5c0.224,0.323,0.603,0.44,0.98,0.518
				c-0.103,0.074-0.206,0.148-0.309,0.221c-0.758,0.536-1.441,1.17-1.971,1.937c-1.679,2.49-2.16,5.685-1.545,8.602
				c0.402,1.384,1.901,0.482,2.683-0.029c1.015-0.671,2.01-1.375,2.953-2.145c1.444-1.208,2.807-2.545,3.895-4.086
				c0.557-0.826,1.683-2.587,1.835-3.944c0.107,0.012,0.214,0.025,0.323,0.031c1.559,0.108,3.194-0.174,4.529-1.017
				c0.497-0.312,1.079-0.714,1.137-1.348c-0.008-0.09-0.025-0.165-0.045-0.234c0.636-0.241,0.852-0.307,0.961-0.306
				c0.269,1.199,0.673,2.365,0.871,3.58c0.306,1.793,0.535,4.107,0.243,6.362c-0.239,2.612-1.944,7.528-3,10.011
				c-1.072,2.693-2.78,4.154-4.399,6.554c-0.527,0.818-2.024,3.272-2.66,5.349c-0.472,1.326-0.626,2.454-0.587,3.719
				c-0.041,1.136,0.299,2.987-0.271,4.126c0-0.009-0.03,0.016-0.049,0.013c-0.006,0.002-0.008,0.002-0.013,0.004
				c-0.348,0.028-0.697,0.046-1.041,0.106c-0.464,0.069-0.909,0.226-1.346,0.394c-1.024,0.363-1.573,0.84-2.569,0.957
				c0.12-0.526,0.272-0.775,0.472-1.266c0.183-0.49,0.635-1.094,0.242-1.583c-0.888-0.783-2.029,0.931-2.715,1.408
				c-0.309,0.262-0.883,0.732-1.663,0.798c-0.741,0.083-2.768-0.461-4.26-0.602c-2.297-0.246-4.625-0.306-6.928-0.106
				c-2.392,0.162-4.514,0.867-6.674,0.821c-1.686-0.082-2.62-1.044-3.659-2.224c-0.532-0.538-2.021-2.771-2.674-1.581
				c-0.107,0.621,0.481,1.181,0.701,1.735c0.446,0.844,0.834,1.69,1.057,2.354c-0.073-0.003-0.147-0.008-0.22-0.012
				c-0.649-0.021-1.371-0.221-1.957,0.146c-1.171,0.942-0.271,2.915,0.501,3.856c1.335,1.608,2.901,3.003,4.49,4.353
				c1.491,1.381,2.991,2.751,4.659,3.919c1.544,1.228,3.488,1.895,5.288,1.972c0.01,0.001,0.01,0.001,0.013,0.001
				c0.06,0.011,0.133,0.025,0.172,0.029c0.086,0.238,0.117,0.494,0.159,0.743c0.133,0.808,0.246,2.522,0.487,3.676
				c-0.127-0.029-0.257-0.038-0.389-0.008c-0.507,0.08-0.738,0.62-0.949,1.029c-0.425,0.856-0.773,1.76-1.372,2.515
				c-0.592,0.779-1.542,1.819-2.531,2.619c-1.216-0.474-2.479-0.72-2.829,0.235c-0.069,0.467,0.025,0.854,0.229,1.178
				c-0.562,0.157-1.129,0.234-1.693,0.276c-1.386,0.104-2.076,0.048-3.219-0.232c-2.75-0.73-5.378-1.866-8.068-2.786
				c-3.982-1.563-9.949-3.691-11.332-6.696c-0.488-1.133-0.381-1.72-0.286-3.046c0.162-2.427,1.026-4.99,0.051-7.343
				c-0.292-0.727-1.076-1.424-1.867-0.943c-1.403,1.082-1.566,5.24-1.502,6.943c0.189,1.712,0.812,3.385,1.838,4.771
				c1.524,2.179,3.605,3.957,5.854,5.355c1.636,0.996,4.132,1.805,5.182,2.777c0.76,0.772,0.988,1.247,0.612,2.311
				c-0.356,1.008-0.472,1.456-0.611,1.846c-0.667,1.879-1.275,3.779-1.779,5.708c-0.742,3.413-1.084,6.899-1.234,10.384
				c0.001,4.09,0.375,8.169,0.642,12.248c0.633,8.93,0.714,17.886,0.884,26.834c0.231,10.273,0.3,20.038-1.762,29.885
				c-1.27,6.604-3.368,13-5.207,19.461c-0.281-2.086-0.611-4.164-0.987-6.233c-0.506-2.286-1.362-8.77-3.206-9.79
				c-1.779-0.433-1.856,2.951-2.101,4.086c-0.385,2.808-0.512,5.654-0.394,8.485c0.375,6.792,1.591,13.539,3.377,20.099
				c-0.061,1.807-0.021,3.618,0.129,5.413c0.192,1.341,0.459,4.441,1.982,4.884c0.459,0.1,0.898-0.119,1.126-0.521
				c0.828,2.261,1.681,4.513,2.518,6.769c1.156,3.079,2.219,6.195,3.467,9.239c1.525,3.604,3.261,7.127,5.312,10.461
				c3.493,5.588,8.111,10.401,11.427,16.105c0.08,0.141,0.158,0.281,0.236,0.421c-0.251-0.215-0.52-0.404-0.829-0.526
				c-2.439-0.791-2.369,2.223-2.134,3.805c0.201,1.577,0.476,3.147,0.915,4.677c0.779,2.743,1.878,5.381,3.141,7.934
				c1.356,2.712,2.834,5.367,4.59,7.844c0.877,1.344,3.599,5.227,4.307,1.79c0.204-2.056-0.511-4.081-0.967-6.064
				c-0.708-2.647-1.499-5.272-2.388-7.864c1.311,2.553,2.415,5.021,3.528,7.601c1.361,3.179,2.68,6.383,3.634,9.711
				c1.904,6.526,3.277,13.19,4.622,19.852c-5.098,8.008-8.688,16.957-10.882,26.183c-1.033,4.444-1.945,9-0.954,13.512
				c0.452,1.668,0.863,4.122,3.022,5.205c8.463,4.246,15.24-17.368,11.259-39.588c-0.322-1.8-0.735-3.582-1.092-5.376
				c1.346-2.067,2.784-4.048,4.312-5.923c1.109-1.307,2.34-2.507,3.648-3.614c5.433-4.598,5.93,6.476,5.81,10.925
				c-0.158,5.833-0.837,11.041-1.741,16.585c-0.26,1.769-0.617,3.538-0.858,5.302c0.051,0.586,0.966,0.584,1.02-0.009
				c0.94-5.045,1.784-10.118,2.264-15.23c0.229-2.387,0.348-4.785,0.409-7.182c0.296-11.455-3.054-15.109-8.39-10.534
				c-2.001,1.716-3.632,3.79-5.207,5.889c-0.541,0.742-1.061,1.497-1.573,2.258c-0.413-2.064-0.833-4.128-1.292-6.182
				c-1.089-4.897-2.191-9.806-3.76-14.575c-1.221-3.671-2.799-7.214-4.366-10.747c-1.896-4.141-3.929-8.255-6.657-11.921
				c-0.064-0.089-0.133-0.175-0.198-0.263c-1.058-2.143-2.211-4.239-3.464-6.273c-2.168-3.35-4.707-6.436-7.077-9.642
				c-2.704-3.441-5.481-8.306-7.045-11.73c-1.973-4.15-3.415-8.518-5.029-12.814c-0.993-2.658-2.003-5.314-2.961-7.987
				c0.03-0.184,0.061-0.367,0.098-0.547c0.256-1.507,0.403-3.03,0.481-4.555c0.15-5.395-0.102-10.802-0.692-16.171
				c1.902-7.066,4.288-14.01,5.754-21.187c1.707-7.91,2.223-16.019,2.11-24.098c-0.084-6.147-0.174-12.294-0.316-18.44
				c-0.112-6.608-0.437-13.208-0.937-19.798c-0.272-3.559-0.463-7.988-0.204-10.897c0.242-2.349,0.498-4.699,1.001-7.009
				c0.736-3.375,2.493-8.187,2.562-8.587c0.085-0.652-0.055-1.356-0.409-1.913c-0.197-0.294-0.43-0.55-0.685-0.782
				c1.333,0.517,2.676,1.007,4.026,1.477c1.948,0.64,3.859,1.454,5.899,1.754c0.874,0.162,1.759,0.139,2.639,0.049
				c0.907-0.089,1.822-0.218,2.664-0.584c0.017-0.008,0.034-0.016,0.051-0.024c0.912,0.486,2.104,0.74,2.882,0.998
				c2.191,0.603,4.641,1.402,6.847,0.468c1.014-0.333,1.879-1.132,2.19-2.161c3.125-1.585,6.023-4.166,8.348-5.794
				c3.152-2.36,5.877-4.296,7.075-8.227c0.797-2.911,0.628-6.054-0.083-8.967c-0.189-0.674-0.356-1.374-0.724-1.977
				c-0.495-0.741-1.215-1.383-2.056-1.7c0.894-0.198,1.108-1.379,1.167-2.212c0.12-1.837-0.186-3.786,0.201-5.219
				c0.844-2.799,2.474-5.521,3.668-7.217c0.575-0.816,1.975-2.314,2.708-3.601c0.991-1.752,1.411-2.986,2.118-4.882
				c0.939-2.501,1.748-5.065,2.09-7.723c0.477-3.336-0.123-6.704-1.025-9.915c-0.105-0.902-0.586-1.294-1.496-1.224
				c-0.543,0.054-1.037,0.317-1.55,0.484c-0.852,0.313-1.725,0.57-2.613,0.755c0.455-0.897,2.856-1.362,3.038-1.532
				c0.131-0.06,0.263-0.123,0.399-0.195c2.013-1.06,3.201-2.901,3.458-5.148c0.368-1.536-0.084-4.195-0.24-5.142
				c-0.064-0.49-0.117-0.981-0.186-1.47c-0.005-0.018-0.009-0.036-0.015-0.054c-0.104-1.339-1.337-2.243-2.38-2.96
				c-1.205-0.812-1.854-1.253-2.811-2.026c-2.037-1.661-3.73-3.679-5.493-5.617c0.916,0.543,1.842,1.068,2.801,1.53
				c1.677,0.796,3.37,1.576,4.838,2.73c1.764,1.334,2.697,2.906,3.026,2.997c0.398,0.11,0.792-0.28,0.667-0.679
				c-0.444-1.418-0.978-2.087-2.204-4.748c-0.42-0.686-0.918-1.323-1.472-1.907c0.314-0.115,0.566-0.388,0.585-0.751
				c0.047-0.645-0.331-1.242-0.706-1.737c-0.686-0.904-1.5-1.711-2.45-2.336c-0.437-0.285-0.934-0.473-1.407-0.694
				c0.467-0.023,0.951,0.033,1.397-0.107c0.9-0.402,0.209-1.407-0.069-2.011c-0.395-0.952-0.748-1.585-0.251-2.248
				c0.381-0.803,1.688-0.948,3.288-1.317c0.803-0.175,1.706-0.832,1.624-1.74c-0.242-1.372-0.943-2.623-1.26-3.981
				c-0.054-0.401-0.1-0.478,0.338-1.142c0.436-0.607,0.574-0.749,1.016-0.716c0.047,0.01,0.107,0.028,0.143,0.058
				c0.031,0.047,0.089,0.022,0.112,0.077c0.369,0.42,0.451,1.089,0.792,1.642c0.467,0.937,1.476,1.816,1.528,2.025
				c0.593,0.918,0.663,1.622,0.479,3.024c-0.097,0.75-0.355,1.5-0.245,2.26c0.163,1.161,0.81,1.917,0.978,2.663
				c0.488,1.717,0.145,4.01,0.319,6.243c0.079,2.664,0.245,4.733-0.61,7.092c-0.099,0.205-0.238,0.539-0.457,0.751
				c-0.798,0.828-2.44,2.315-1.18,3.405c0.554,0.393,1.276,0.156,1.801-0.177c0.801-0.486,1.338-1.287,1.737-2.116
				c0.492-1.002,0.861-2.057,1.162-3.131c1-3.621,1.349-7.415,1.2-11.164c-0.188-2.827,0.392-4.789,1.829-7.162
				c1.013-1.729,2.035-3.492,2.481-5.466C367.219,48.448,366.891,44.955,364.813,41.528z M239.832,135.857
				c4.974-10.967,10.85-13.393,10.766-9.544c-0.054,2.471-1.18,5.109-2.391,7.487c-2.051,3.78-4.034,6.8-7.241,9.49
				c-1.347,1.185-2.781,2.177-4.384,2.11C237.481,142.004,238.632,138.525,239.832,135.857z M275.617,444.862
				c3.419,0.014,6.652,0.158,9.652,0.858c2.009,0.492,3.246,1.144,3.095,1.718c-5.465-0.503-10.753-1.396-16.233-2.455
				C273.276,444.918,274.436,444.875,275.617,444.862z M268.23,445.295c3.297,0.585,6.569,1.298,9.871,1.857
				c2.822,0.469,5.658,0.861,8.503,1.158c-0.091,0.019-0.184,0.038-0.282,0.055c-2.838,0.626-5.601,0.967-8.806,0.818
				c-3.779-0.188-7.556-0.42-11.333-0.637c-3.492-0.218-6.999-0.203-10.483,0.129c-5.772,0.484-10.642,1.835-16.364,1.608
				c-1.365-0.029-2.558-0.161-3.733-0.335c2.15-0.28,4.309-0.598,6.502-0.919c5.578-0.829,11.153-1.682,16.734-2.488
				C261.98,446.07,265.07,445.614,268.23,445.295z M221.501,446.857c4.828-1.148,9.024-1.667,13.886-2.239
				c4.679-0.547,9.375-0.999,14.091-0.946c4.817,0.052,9.809,0.422,14.442,0.995c-3.377,0.448-6.746,0.986-10.107,1.46
				c-5.13,0.765-11.45,1.715-15.993,2.352c-2.166,0.302-4.34,0.579-6.52,0.792c-0.105-0.014-0.208-0.029-0.315-0.043
				c-1.837-0.255-3.694-0.198-5.54-0.097c-1.682,0.102-3.365,0.281-5.035,0.473c-0.231-0.012-0.463-0.023-0.694-0.038
				c-1.47-0.14-2.927-0.177-4.048-0.472C216.608,448.126,219.368,447.422,221.501,446.857z M163.347,298.755
				c0.268-1.637,0.711-3.185,1.258-3.769c0.032,0.049,0.065,0.102,0.085,0.144c0.605,1.114,0.744,1.484,1.149,2.596
				c1.516,4.58,2.013,8.759,1.721,13.691c-0.173,2.266-0.427,4.072-1.215,6.444c-0.048,0.093-0.148,0.284-0.25,0.462
				c-0.735-3.088-1.422-6.194-2.426-9.209c-0.447-1.284-0.901-2.508-1.359-3.693C162.653,303.199,162.936,300.967,163.347,298.755z
				 M165.939,152.408c3.282-7.245,6.604-14.491,10.554-21.401c3.451-5.915,6.878-10.977,11.788-15.598
				c1.507-1.411,2.949-2.576,4.343-3.573c0.693-0.482,1.383-0.981,2.158-1.325c0.289-0.115,0.59-0.2,0.899-0.244
				c0.08,0.001,0.238-0.001,0.335-0.006c2.119,0.62-1.007,5.74-2.95,8.689c-2.166,3.342-4.465,6.594-6.835,9.794
				c-4.483,6.021-9.068,12.326-13.405,17.845c-2.266,2.692-5.413,6.653-8.015,8.344
				C165.186,154.097,165.562,153.257,165.939,152.408z M278.772,139.499c2.4,1.662,4.099,2.468,6.086,4.882
				c0.211,0.28,0.415,0.566,0.595,0.868c0.3,0.506,0.565,1.032,0.8,1.57c0.471,1.107,0.774,2.478,0.75,3.094
				c-0.167-0.175-0.317-0.365-0.475-0.548c-0.945-1.147-1.895-2.297-2.997-3.299c-1.891-1.643-3.643-2.421-5.21-3.937
				c-1.91-1.837-3.166-3.77-4.703-5.893C275.292,137.393,277.069,138.388,278.772,139.499z M304.915,107.795
				c0.056-0.054,0.099-0.112,0.135-0.171c0.132,0.176,0.258,0.346,0.383,0.511c-0.217-0.046-0.43-0.081-0.623-0.098
				c-0.083-0.011-0.165-0.016-0.248-0.024C304.691,107.969,304.812,107.904,304.915,107.795z M299.87,101.771
				c-0.147-0.235-0.329-0.451-0.537-0.643c0.744,0.408,1.436,1.036,2.278,1.938c0.969,1.008,1.637,2.148,2.663,3.522
				c-0.039,0.014-0.079,0.029-0.12,0.05c-0.001,0.001-0.002,0.002-0.003,0.002c-0.187,0.037-0.374,0.109-0.552,0.164
				c-0.797,0.056-1.558,0.142-2.172,1.046c-0.058,0.101-0.09,0.209-0.109,0.318c-0.376,0.018-1.516-0.277-2.469-0.486
				c-0.408-0.097-0.812-0.203-1.208-0.319c0.237-0.04,0.471-0.105,0.695-0.196C300.402,106.396,300.839,103.552,299.87,101.771z
				 M295.723,102.838c0.052-0.301,0.069-0.287,0.128-0.398c0.031-0.053,0.072-0.105,0.117-0.158c0.03,0.183,0.129,0.352,0.291,0.465
				c-0.082,0.143-0.126,0.313-0.178,0.465c-0.005,0.015-0.009,0.025-0.013,0.035c-0.019,0.042-0.041,0.082-0.064,0.122
				c-0.097-0.1-0.086-0.002-0.275-0.379c-0.003-0.008-0.005-0.018-0.008-0.028C295.721,102.928,295.72,102.883,295.723,102.838z
				 M296.742,104.229c0.074,0.13,0.169,0.244,0.308,0.325c0.624,0.329,1.092-0.318,1.073-0.903c0.009-0.145-0.007,0.018-0.017,0.079
				c0.07-0.425-0.064-0.861-0.211-1.258c-0.036-0.089-0.072-0.178-0.11-0.267c0.04-0.057,0.077-0.115,0.108-0.177
				c0.04-0.08,0.066-0.159,0.085-0.237c0.293,0.166,0.546,0.406,0.743,0.707c0.275,0.569,0.43,1.348,0.181,2.196
				c-0.368,1.361-1.703,1.57-2.752,1.227c-1.237-0.539-1.542-1.402-1.362-2.236C295.254,104.471,296.151,104.779,296.742,104.229z
				 M291.254,101.631c0.901-0.34,2.172-0.51,3.516-0.626c-1.169,1.01-1.861,2.641-1.288,4.118c0.075,0.198,0.173,0.383,0.284,0.559
				c-1.068-0.679-1.952-1.507-2.552-2.52C290.784,102.338,290.839,101.856,291.254,101.631z M231.412,79.598
				c-0.16-0.004-0.368-0.018-0.461-0.024c-0.034-0.007-0.065-0.015-0.087-0.021c-0.003-0.005-0.007-0.011-0.01-0.017
				c0.285-0.753,1.435-1.883,2.472-2.949c2.3-2.217,4.22-3.703,6.738-5.361c0.571-0.35,1.141-0.695,1.704-1.015
				C238.349,73.376,234.935,76.549,231.412,79.598z M242.523,73.49c-2.252,1.737-5.363,4.145-8.23,5.36
				c3.342-3.03,6.589-6.165,9.878-9.253c0.297-0.269,0.59-0.542,0.881-0.814c0.369-0.089,0.73-0.143,1.08-0.153
				c0.712,0.06,1.287,0.168,1.768,0.355C246.19,70.58,244.347,72.028,242.523,73.49z M251.166,67.189
				c0.212-0.291,0.421-0.591,0.593-0.909c0.254,0.453,0.53,0.894,0.835,1.319c0.698,1.086,1.583,2.026,2.42,3.002
				c0.364,0.461,1.272,1.74,1.767,2.766c0.613,1.243,0.61,1.183,0.122,2.752c-0.615,1.644-1.228,3.487-0.412,5.173
				c0.534,1.22,1.242,2.381,2.06,3.432c1.19,1.402,2.337,1.527,3.783,0.349c0.893-0.727,4.294-4.456,5.537-5.658
				c0.354-0.356,0.288-0.925-0.111-1.217c-0.283-0.232-0.586-0.23-1.136-0.042c-4.011,1.649-3.184,0.298-2.715,0.224
				c1.368-0.503,2.915-0.486,4.226-1.129c1.103-0.541,2.318-2.59-1.277-4.088c-0.934-0.389-2.107-0.779-2.862-1.155
				c0.042,0.044-0.054-0.051-0.072-0.07c-0.008-0.009-0.011-0.013-0.013-0.015c-0.006-0.008-0.011-0.016-0.011-0.016
				c-0.011-0.019-0.024-0.037-0.034-0.057c0-0.002,0-0.004,0-0.006c0.002-0.01,0.003-0.02,0.006-0.029
				c0-0.001,0.001-0.003,0.001-0.004c0.187-0.362,0.614-0.619,1.057-0.956c0.677-0.498,2.166-1.4,1.282-2.332
				c-0.904-0.592-1.482-0.604-2.388-1.274c-0.126-0.103-0.305-0.214-0.381-0.403c0.009-0.04,0.018-0.079,0.029-0.118
				c0.193-0.76,1.048-1.866,1.167-3.012c0.07-1.216-0.985-2.08-1.54-3.062c-0.785-1.119-1.11-2.549-1.226-3.542
				c-0.046-0.862-0.155-1.22,0.151-1.818c0.088-0.178,0.108-0.199,0.245-0.331c0.136-0.111,0.325-0.214,0.565-0.28
				c0.895-0.239,1.403-0.215,2.487-0.291c0.506-0.03,1.004-0.134,1.481-0.304c0.043-0.012,0.088-0.019,0.133-0.027
				c-0.044,0.001-0.059-0.009,0.032-0.006c0.018-0.003,0.035-0.009,0.053-0.011c-0.01,0.004-0.02,0.008-0.031,0.01
				c0.866-0.1,2.005,1.073,2.83,2.054c-0.745-0.28-1.734-0.662-2.425-0.59c-1.082,0.073-1.458,1.106-0.758,1.904
				c0.887,0.924,2.273,1.081,3.457,1.402c4.204,0.806,6.847,0.689,9.634,3.65c1.53,1.603,1.989,2.913,2.111,3.181
				c1.429,3.126-1.082,4.307-4.302,6.151c-0.788,0.529-1.892,1.056-1.931,2.134c-0.021,0.438,0.032,0.769-0.018,0.828
				c-0.007,0.028-0.019,0.054-0.028,0.082c-0.03,0.047-0.078,0.127-0.107,0.179c-0.458,0.519-0.704,0.597-1.433,1.054
				c-1.015,0.61-2.042,1.202-3.023,1.867c-1,0.683-1.924,1.466-2.841,2.256c-1.336,1.165-2.716,2.342-3.783,3.759
				c-0.582,0.783-0.535,3.058,3.501,4.798c3.086,1.331,6.52,1.42,9.692,2.475c2.598,0.8,4.841,2.494,6.312,4.911
				c0.842,1.195,1.4,2.645,2.609,3.538c0.898,0.68,1.882,1.011,2.91,1.147c-0.328,0.335-0.591,0.731-0.744,1.179
				c-0.031,0.091-0.319,1.109-0.793,0.721c-0.464-0.232-0.829-0.56-1.341-0.972c-0.924-0.761-1.895-1.463-2.855-2.179
				c-1.466-1.104-2.412-1.81-3.895-3.055c-1.142-0.996-2.25-2.035-3.459-2.951c-1.955-1.481-4.139-2.659-6.418-3.561
				c-0.839-0.317-1.692-0.592-2.548-0.858c-0.563-0.169-1.15-0.392-1.745-0.273c-0.45,0.154-0.667,0.613-0.925,0.978
				c-0.4,0.592-0.828,1.165-1.258,1.735c-2.709,3.531-4.001,4.321-2.783,9.954c0.853,3.933,1.803,7.852,2.349,11.844
				c0.317,2.273,0.601,5.352,1.18,8.195c0.336,1.596,0.796,3.163,1.345,4.699c-2.017-2.883-3.859-6.159-5.017-8.89
				c-1.833-4.513-1.616-8.977-1.375-13.964c0.28-3.696,0.542-7.424,0.036-11.113c-0.264-2.48-1.895-4.454-3.295-6.409
				c-1.322-1.814-2.434-3.944-3.07-5.643c-1.792-3.37-0.243-9.025-2.922-11.543C250.326,68.242,250.766,67.731,251.166,67.189z
				 M250.936,64.774c0.295,0.431-0.782,1.943-2.008,3.216c-0.558-0.29-1.197-0.437-1.805-0.568
				c-0.177-0.039-0.353-0.063-0.529-0.082c1.067-0.98,2.131-1.878,3.263-2.526C250.34,64.611,250.513,64.552,250.936,64.774z
				 M283.471,51.537c1.589,1.62,2.969,3.424,4.443,5.145c1.048,1.229,2.254,2.423,2.927,3.405c0.801,1.123,1.553,2.656,1.673,3.363
				c-0.505-0.241-1.218-0.875-1.832-1.283c-2.215-1.662-4.025-3.732-5.372-5.645c-1.234-1.625-2.673-4.211-3.203-5.568
				c-0.137-0.359-0.269-0.722-0.372-1.092C282.315,50.403,282.893,50.959,283.471,51.537z M340.541,62.893
				c-0.38-0.215-0.736-0.469-1.081-0.736c0.247,0.238-0.401-0.365-0.52-0.477c-0.095-0.068-0.416-0.461-0.482-0.541
				c-0.002-0.003-0.005-0.007-0.007-0.01c-0.632-0.937-0.874-1.484-0.91-2.185c0-0.035,0.002-0.069,0.005-0.104
				c0.004-0.021,0.01-0.044,0.017-0.067c0.015-0.029,0.03-0.055,0.043-0.075c0.014-0.015,0.026-0.028,0.038-0.039
				c0.013-0.008,0.025-0.016,0.036-0.022c0.074-0.014,0.21-0.017,0.348-0.01c0.318,0.322,0.63,0.665,0.94,1.039
				c0.782,0.962,1.751,2.273,1.827,3.366C340.69,62.976,340.584,62.918,340.541,62.893z M338.633,100.127
				c0.171,0.312,0.452,0.6,0.776,0.848c-0.028,0.026-0.055,0.055-0.08,0.085c-0.18,0.162-0.305,0.404-0.321,0.69
				c-0.031-0.022-0.084-0.062-0.191-0.134c-0.455-0.407-0.368-0.276-0.526-0.84C338.381,100.584,338.496,100.362,338.633,100.127z
				 M336.337,106.997c-0.002,0.011-0.005,0.021-0.008,0.037c-0.004,0.013-0.009,0.026-0.013,0.04
				c-0.018,0.037-0.036,0.075-0.058,0.11c-0.072,0.098-0.153,0.204-0.229,0.313c-0.047-0.313-0.084-0.629-0.101-0.952
				c0.001,0.001,0.003,0.002,0.004,0.003c0.187,0.149,0.158,0.087,0.4,0.369c0.002,0.004,0.005,0.008,0.007,0.011
				C336.338,106.951,336.338,106.974,336.337,106.997z M338.271,106.554c-0.003-0.005-0.327,0.234-0.683,0.484
				c-0.035,0.022-0.07,0.044-0.105,0.066c0.016-0.202-0.003-0.406-0.083-0.59c-0.184-0.497-1.073-1.017-1.078-1.06
				c-0.235-0.257-0.156-0.174-0.241-0.37c-0.037-0.129-0.038-0.276-0.087-0.401c0.116-0.953,0.355-1.902,0.738-2.787
				c-0.006,0.731,0.202,1.476,0.546,2.115c0.631,1.031,1.378,1.562,2.128,1.722C339.022,106.028,338.641,106.305,338.271,106.554z
				 M341.584,103.311c-0.539,1.031-1.625,1.309-2.016,1.126c-0.823-0.387-1.316-1.142-1.484-1.92
				c0.377,0.299,0.836,0.477,1.317,0.441c0.096-0.016,0.189-0.046,0.279-0.083c0.545,0.216,1.222-0.123,1.327-0.966
				c0.118-0.661-0.114-1.393-0.699-1.761c-0.417-0.298-0.472-0.312-0.682-0.643c0.018-0.031,0.038-0.065,0.059-0.094
				c0.061-0.061,0.228-0.23,0.344-0.333c0.381-0.261,0.479-0.303,0.701-0.379c0.013,0.009,0.027,0.015,0.04,0.024
				C342.137,99.95,342.388,101.904,341.584,103.311z M345.102,98.933c-0.378,0.994-1.023,2.022-1.811,3.014
				c0.026-0.354,0.013-0.718-0.048-1.086c-0.157-0.859-0.583-1.827-1.218-2.524c0.482-0.107,0.966-0.204,1.44-0.34
				c0.263-0.076,0.521-0.163,0.775-0.26c0.369,0.095,0.738,0.193,1.109,0.278C345.333,98.247,345.265,98.547,345.102,98.933z
				 M291.963,143.178C292.002,143.072,292.039,143.014,291.963,143.178L291.963,143.178z M292.602,148.003
				c-0.128,1.032-0.28,1.863-0.32,2.541c-0.038,0.327-0.056,0.657-0.049,0.985c-0.233-0.459-0.428-0.927-0.566-1.404
				c-0.409-1.239-0.4-1.945-0.33-3.372c0.113-1.392,0.155-2.122,0.608-3.522c0.006-0.02,0.012-0.036,0.019-0.053
				c0.026-0.064,0.056-0.127,0.088-0.189c-0.012-0.048,0.098-0.197,0.17-0.286c0.012-0.014,0.026-0.029,0.033-0.038
				c0.077,0.059,0.134,0.146,0.192,0.222c0.227,0.313,0.221,0.462,0.381,1.041C293.123,144.964,292.762,146.754,292.602,148.003z
				 M291.575,283.148c-0.774-3.253-1.347-6.337-1.791-9.514c-0.891-6.106-1.113-12.128,0.177-17.852
				c0.037-0.086,0.103-0.238,0.169-0.371c0.187,0.206,0.317,0.455,0.517,0.881c1.44,3.892,2.21,9.483,2.84,13.709
				c0.126,1.006,0.243,2.014,0.351,3.023c-0.022,0.081-0.044,0.161-0.065,0.241c-0.834,3.096-1.677,6.206-2.142,9.383
				C291.611,282.814,291.595,282.981,291.575,283.148z M293.684,295.764c-0.016,0.068-0.051,0.141-0.088,0.205
				c-0.01-0.01-0.019-0.019-0.029-0.028c-0.627-1.091-0.777-2.256-0.948-3.67c-0.048-0.434-0.081-0.902-0.105-1.387
				c0.438,1.34,0.898,2.673,1.372,4.001C293.82,295.22,293.752,295.519,293.684,295.764z M294.522,289.87
				c-0.027,0.672-0.114,1.576-0.232,2.497c-0.637-1.857-1.233-3.727-1.773-5.616c0.045-1.179,0.116-2.262,0.182-3.062
				c0.321-2.422,0.864-4.805,1.473-7.17C294.54,280.96,294.694,285.42,294.522,289.87z M328.701,432.524
				c-1.9-0.043-5.111-4.041-3.338-13.804c1.825-10.049,5.698-20.207,11.014-28.861C339.908,401.113,338.905,432.754,328.701,432.524
				z M319.873,344.193c1.727,3.546,3.139,7.134,4.339,11.174c0.868,2.975,1.956,6.354,2.173,8.972
				c-0.002,0.52-0.032,0.802-0.108,0.991c-0.134-0.08-0.194-0.154-0.486-0.414c-0.671-0.613-1.282-1.652-2.014-2.668
				c-1.596-2.283-2.923-4.735-4.184-7.214c-1.976-3.962-3.601-8.406-3.938-12.799c-0.026-1.022-0.07-1.482,0.208-1.937
				c0.008-0.004,0.016-0.01,0.027-0.019c0.023-0.005,0.044-0.011,0.063-0.017c0.038,0.001,0.075,0.001,0.113,0.002
				c0.036,0.009,0.071,0.019,0.098,0.027c0.56,0.263,0.828,0.676,1.498,1.305C318.478,342.415,319.197,343.278,319.873,344.193z
				 M335.987,136.566c0.737-0.333,1.422-1.033,2.008-1.589c-0.233,0.501-0.464,1.005-0.503,1.556
				c0.102,0.623,0.423,0.876,0.844,0.924c-0.329,0.215-0.65,0.441-0.963,0.678c-0.325-0.601-0.874-1.065-1.673-1.23
				c-0.176-0.033-0.354-0.059-0.53-0.087C335.449,136.772,335.723,136.695,335.987,136.566z M322.928,136.191
				c2.173-0.239,4.366-0.201,6.543-0.035c1.012,0.078,1.752,0.197,2.725,0.377c-1.166-0.052-2.337-0.055-3.499-0.071
				c-2.105,0.055-4.203-0.094-6.303-0.207C322.576,136.231,322.754,136.208,322.928,136.191z M312.879,134.697
				c0.664,0.821,1.47,1.48,2.4,1.87c-0.626,0.036-1.365,0.071-2.036,0.167c0.217-0.639-0.459-1.824-0.793-2.543
				C312.591,134.367,312.734,134.538,312.879,134.697z M312.906,137.825c1.098-0.181,2.961-0.195,4.49-0.352
				c2.13-0.174,4.273-0.253,6.405-0.064c1.974,0.153,3.954,0.122,5.932,0.122c1.33,0.02,2.659,0.068,3.985,0.166
				c0.674,0.065,1.099,0.082,1.474,0.166c0.419,0.08,0.867,0.191,1.133,0.551c0.093,0.124,0.162,0.251,0.221,0.379
				c-1.453,1.225-2.743,2.654-3.945,4.12c-0.965,1.179-1.897,2.386-2.895,3.537c-0.277,0.334-0.566,0.643-0.865,0.916
				c-0.453,0.26-0.899,0.529-1.291,0.867c-0.44,0.187-0.901,0.272-1.385,0.215c-3.185-0.076-6.012-2.068-8.467-4.556
				c-1.281-1.287-2.477-2.655-3.711-3.986c-0.564-0.633-1.24-1.286-1.628-1.912C312.528,137.91,312.72,137.864,312.906,137.825z
				 M336.691,140.001c-0.161,0.925-0.849,1.861-1.562,2.624c-1.114,1.124-2.067,1.886-3.155,2.665
				c0.26-0.329,0.521-0.656,0.788-0.977C333.997,142.765,335.288,141.269,336.691,140.001z M325.216,149.516
				c-0.519-0.056-0.801-0.071-1.091-0.123c-1.22-0.22-1.891-0.482-2.932-1.124c-1.927-1.27-3.28-2.457-4.997-4.067
				c-1.504-1.31-3.024-2.607-4.351-4.103c-0.579-0.65-0.923-1.069-1.145-1.856c-0.094-0.433-0.172-0.505-0.054-0.962
				c0.062-0.21,0.328-0.16,0.526-0.166c0.213,0.004,0.426,0.015,0.639,0.027c-0.664,0.377-0.794,1.027,0.302,2.187
				c1.578,1.769,3.142,3.554,4.798,5.25c2.314,2.324,5.112,4.476,8.473,4.837c0.526,0.074,1.062,0.078,1.583,0.005
				c-0.08,0.478-0.073,0.984-0.112,1.451c-0.027,0.73-0.111,1.539-0.191,2.183c-0.096-0.964-0.204-2.139-0.495-2.996
				C326.006,149.679,325.601,149.536,325.216,149.516z M319.487,161.914c-0.105,0.062-0.21,0.118-0.316,0.172
				c-0.103-0.1-0.185-0.207-0.236-0.323c0.021,0,0.041-0.001,0.062,0c0.085-0.008,0.303,0.035,0.566,0.108
				C319.538,161.885,319.512,161.901,319.487,161.914z M323.266,163.555c-0.817-0.258-1.971-0.488-2.893-0.818
				c0.175-0.11,0.346-0.227,0.515-0.348c0.757,0.367,1.691,0.874,2.668,1.238C323.459,163.604,323.363,163.58,323.266,163.555z
				 M328.349,163.886c-0.886,0.289-1.735,0.308-2.632,0.191c1.2,0.046,2.396-0.19,3.57-0.609
				C328.848,163.729,328.871,163.692,328.349,163.886z M329.012,162.228c-0.764,0.268-2.06,0.611-2.334,0.605
				c-1.478,0.14-2.726-0.237-3.721-0.706c-0.249-0.11-0.635-0.31-1.086-0.526c1.036-0.927,1.922-2.033,2.662-3.192
				c0.433-0.703,0.871-1.907,1.258-2.425c0.341,0.116,0.648,0.328,0.941,0.532c0.694,0.566,1.119,1.194,1.583,1.968
				c0.548,0.956,1.458,2.403,1.726,3.293C329.693,161.943,329.349,162.098,329.012,162.228z M344.971,138.525
				c1.126,2.989,1.23,6.27,0.706,9.099c-0.357,1.879-1.756,4.005-2.731,4.991c-1.206,1.151-1.98,1.665-3.272,2.659
				c-2.73,1.947-5.821,4.447-8.686,6.019c-0.119-0.336-0.282-0.662-0.435-0.975c-0.753-1.385-1.479-2.818-2.519-4.014
				c-0.292-0.314-0.624-0.593-0.981-0.832c0.215-0.249,0.271-0.6,0.364-0.908c0.232-1.092,0.327-2.213,0.411-3.326
				c0.085-0.929-0.04-1.443,0.264-2.117c0.282-0.12,0.552-0.272,0.805-0.46c0.205-0.166,0.401-0.341,0.593-0.52
				c0.298-0.173,0.599-0.349,0.864-0.522c0.891-0.571,1.749-1.193,2.6-1.822c1.677-1.259,3.418-2.614,4.382-4.524
				c0.331-0.655,0.454-1.414,0.36-2.118c0.511-0.403,1.038-0.775,1.582-1.104c1.119-0.639,2.269-1.165,3.223-1.223
				C343.214,136.751,344.492,137.497,344.971,138.525z"/>
			<polygon style="fill:#030202;" points="355.365,81.782 355.366,81.789 355.366,81.791 			"/>
		</g>
	</g>
</g>
</svg>
